<?xml version="1.0" encoding="UTF-8"?>
<svg id="Layer_2" data-name="Layer 2" xmlns="http://www.w3.org/2000/svg" viewBox="0 0 484 491.58">
  <defs>
    <style>
      .cls-1 {
        fill: #3f3eed;
      }
    </style>
  </defs>
  <g id="Layer_1-2" data-name="Layer 1">
    <g>
      <path class="cls-1" d="M458.63,198.14c-2.62,0-5.14.4-7.51,1.13l-84.25-75.86c.34-1.65.52-3.38.52-5.13,0-14.01-11.36-25.37-25.37-25.37-2.68,0-5.27.42-7.7,1.19l-67.69-60.95c.79-2.46,1.21-5.07,1.21-7.78,0-14.01-11.36-25.37-25.37-25.37s-25.37,11.36-25.37,25.37c0,2.46.35,4.85,1.01,7.11L32.88,199.27c-2.37-.73-4.89-1.13-7.51-1.13-14.01,0-25.37,11.36-25.37,25.37,0,1.69.16,3.34.48,4.93,1.64,8.32,7.35,15.19,14.96,18.43,3.05,1.29,6.41,2.01,9.93,2.01,7.39,0,14.04-3.16,18.68-8.2h39.63v120.78c-.07.04-.14.09-.21.13-6.78,4.47-11.28,12.11-11.41,20.8,0,.13,0,.26,0,.39,0,8.94,4.63,16.81,11.62,21.32,3.95,2.57,8.67,4.05,13.75,4.05,3.54,0,6.9-.72,9.95-2.03,1.07-.46,2.1-.98,3.08-1.56l106.48,61.47v.18c0,.46,0,.91.04,1.37h0c.46,8.64,5.23,16.12,12.19,20.35.32.2.65.39.99.57,3.61,1.97,7.76,3.09,12.15,3.09,4.16,0,8.09-1,11.55-2.78.44-.23.87-.46,1.29-.71,7.03-4.13,11.91-11.57,12.48-20.17.04-.57.06-1.14.06-1.71,0-.17,0-.35,0-.52l105.88-61.13c.99.59,2.01,1.11,3.08,1.56,3.05,1.31,6.42,2.03,9.95,2.03,5.07,0,9.79-1.48,13.75-4.05,7-4.51,11.62-12.38,11.62-21.32,0-.13,0-.26,0-.39-.12-8.69-4.63-16.33-11.41-20.8-.07-.05-.14-.09-.21-.13v-120.78h39.63c4.64,5.04,11.29,8.2,18.68,8.2,3.52,0,6.87-.72,9.93-2.01,7.61-3.24,13.32-10.11,14.96-18.43.32-1.59.48-3.24.48-4.93,0-14.01-11.36-25.37-25.37-25.37ZM49.89,216.98c-.08-.3-.16-.61-.26-.9L234.63,49.5c2.46.81,5.1,1.24,7.84,1.24,2.47,0,4.87-.35,7.13-1.02l68.1,61.32c-.68,2.29-1.05,4.73-1.05,7.24,0,2.83.46,5.54,1.32,8.07l-47.85,43.08-25.86-23.29c1.04-2.77,1.61-5.76,1.61-8.89,0-14.01-11.36-25.37-25.37-25.37s-25.37,11.36-25.37,25.37c0,2.41.33,4.74.97,6.95l-80.83,72.79H49.89ZM292.46,424l-36.31,20.96c-.74-.48-1.51-.93-2.3-1.34v-30.39h18.49v-23.7h-60.68v23.7h18.49v30.73c-.68.36-1.34.77-1.98,1.19l-36.63-21.15-9.41-46.63,23.22-17.24h73.32l23.22,17.24-9.41,46.63ZM376.62,359.44c-9.06,3.87-15.42,12.87-15.42,23.34,0,.5.02,1,.05,1.5l-41.43,23.92,3.07-15.23,5.19-25.66-21.02-15.6-20.58-15.27h-88.97l-20.58,15.27-21.02,15.6,5.19,25.66,3.07,15.23-41.43-23.92c.03-.49.05-1,.05-1.5,0-10.48-6.35-19.47-15.42-23.34v-118.76h269.25v118.76ZM434.11,216.98H150.68l61.81-55.67c2.51.84,5.2,1.3,8,1.3,2.02,0,3.99-.24,5.87-.68l26.04,23.45,17.71,15.95,17.72-15.95,47.36-42.65c2.17.61,4.46.93,6.82.93,3.45,0,6.74-.69,9.75-1.94l82.6,74.37c-.09.29-.18.6-.26.9Z"/>
      <polygon class="cls-1" points="336.33 247.02 288.93 281.45 288.93 310.75 336.33 276.31 336.33 247.02"/>
      <polygon class="cls-1" points="195.07 281.45 147.67 247.02 147.67 276.31 195.07 310.75 195.07 281.45"/>
    </g>
  </g>
</svg>