<?xml version="1.0" encoding="UTF-8"?>
<svg id="Layer_2" data-name="Layer 2" xmlns="http://www.w3.org/2000/svg" viewBox="0 0 594 594">
  <defs>
    <style>
      .cls-1 {
        fill: #3a3d98;
      }

      .cls-2 {
        fill: #fff;
      }
    </style>
  </defs>
  <g id="Layer_1-2" data-name="Layer 1">
    <g>
      <circle class="cls-2" cx="297" cy="297" r="297"/>
      <g>
        <path class="cls-1" d="M525.27,246.79c-2.76,0-5.41.42-7.91,1.19l-88.78-79.94c.36-1.74.55-3.56.55-5.4,0-14.77-11.97-26.73-26.73-26.73-2.83,0-5.55.44-8.11,1.26l-71.33-64.23c.83-2.59,1.28-5.34,1.28-8.2,0-14.77-11.97-26.73-26.73-26.73s-26.73,11.97-26.73,26.73c0,2.6.37,5.11,1.07,7.49L76.64,247.98c-2.5-.77-5.15-1.19-7.91-1.19-14.77,0-26.73,11.97-26.73,26.73,0,1.78.17,3.52.51,5.19,1.73,8.77,7.74,16,15.76,19.42,3.22,1.36,6.75,2.12,10.46,2.12,7.78,0,14.8-3.33,19.68-8.64h41.76v127.27c-.07.04-.15.09-.22.14-7.14,4.72-11.89,12.76-12.02,21.92,0,.14,0,.27,0,.41,0,9.42,4.88,17.71,12.25,22.47,4.17,2.71,9.14,4.27,14.49,4.27,3.73,0,7.27-.76,10.49-2.14,1.13-.48,2.21-1.03,3.25-1.65l112.2,64.77v.19c0,.49,0,.96.04,1.44h0c.48,9.1,5.51,16.98,12.85,21.44.34.21.69.41,1.04.6,3.81,2.08,8.17,3.26,12.81,3.26,4.39,0,8.52-1.06,12.17-2.93.46-.24.92-.49,1.36-.75,7.41-4.36,12.55-12.19,13.15-21.26.04-.6.06-1.2.06-1.8,0-.18,0-.37,0-.55l111.57-64.42c1.04.62,2.12,1.17,3.25,1.65,3.22,1.38,6.76,2.14,10.49,2.14,5.34,0,10.32-1.56,14.49-4.27,7.37-4.76,12.25-13.05,12.25-22.47,0-.14,0-.27,0-.41-.13-9.16-4.88-17.2-12.02-21.92-.07-.05-.15-.1-.22-.14v-127.27h41.76c4.89,5.31,11.9,8.64,19.68,8.64,3.71,0,7.24-.76,10.46-2.12,8.02-3.42,14.04-10.65,15.76-19.42.34-1.68.51-3.42.51-5.19,0-14.77-11.97-26.73-26.73-26.73ZM94.56,266.64c-.08-.32-.17-.64-.27-.95l194.94-175.53c2.6.85,5.37,1.31,8.26,1.31,2.61,0,5.13-.37,7.51-1.08l71.76,64.62c-.72,2.42-1.11,4.98-1.11,7.63,0,2.98.49,5.83,1.39,8.5l-50.42,45.39-27.25-24.55c1.1-2.92,1.7-6.07,1.7-9.37,0-14.77-11.97-26.73-26.73-26.73s-26.73,11.97-26.73,26.73c0,2.54.35,4.99,1.02,7.32l-85.17,76.7h-68.89ZM350.18,484.78l-38.26,22.09c-.78-.51-1.59-.98-2.43-1.41v-32.03h19.48v-24.97h-63.94v24.97h19.48v32.38c-.72.38-1.41.81-2.09,1.26l-38.6-22.29-9.92-49.13,24.47-18.16h77.26l24.47,18.16-9.92,49.13ZM438.86,416.76c-9.55,4.08-16.24,13.56-16.24,24.6,0,.53.02,1.06.05,1.58l-43.66,25.2,3.24-16.04,5.46-27.04-22.15-16.44-21.69-16.09h-93.75l-21.69,16.09-22.15,16.44,5.46,27.04,3.24,16.04-43.66-25.2c.03-.52.05-1.05.05-1.58,0-11.04-6.69-20.52-16.24-24.6v-125.14h283.72v125.14ZM499.44,266.64H200.78l65.13-58.66c2.65.89,5.48,1.37,8.43,1.37,2.13,0,4.21-.25,6.18-.72l27.44,24.71,18.66,16.8,18.67-16.8,49.91-44.94c2.29.64,4.7.98,7.18.98,3.64,0,7.1-.73,10.27-2.05l87.04,78.37c-.1.31-.19.63-.27.95Z"/>
        <polygon class="cls-1" points="396.4 298.29 346.45 334.57 346.45 365.45 396.4 329.16 396.4 298.29"/>
        <polygon class="cls-1" points="247.55 334.57 197.6 298.29 197.6 329.16 247.55 365.45 247.55 334.57"/>
      </g>
    </g>
  </g>
</svg>