
<?xml version="1.0" encoding="UTF-8"?>
<svg viewBox="0 0 511 519" xmlns="http://www.w3.org/2000/svg">
  <path fill="#3a3d98" d="M483.8 209c-2.8 0-5.4.4-8 1.2l-88.9-80c.4-1.7.6-3.6.6-5.4 0-14.8-12-26.8-26.8-26.8-2.8 0-5.6.4-8.1 1.3l-71.4-64.3c.8-2.6 1.3-5.4 1.3-8.2C282.5 12 270.5 0 255.7 0s-26.8 12-26.8 26.8c0 2.6.4 5.1 1.1 7.5L34.7 210.2c-2.5-.8-5.2-1.2-7.9-1.2C12 209 0 221 0 235.8c0 1.8.2 3.5.5 5.2 1.7 8.8 7.8 16 15.8 19.4 3.2 1.4 6.8 2.1 10.5 2.1 7.8 0 14.8-3.3 19.7-8.6h41.8v127.4l-.2.1c-7.2 4.7-11.9 12.8-12 22v.4c0 9.4 4.9 17.7 12.3 22.5 4.2 2.7 9.1 4.3 14.5 4.3 3.7 0 7.3-.8 10.5-2.1 1.1-.5 2.2-1 3.2-1.7l112.3 64.8v.2c0 .5 0 1 0 1.4h0c.5 9.1 5.5 17 12.9 21.5.3.2.7.4 1 .6 3.8 2.1 8.2 3.3 12.8 3.3 4.4 0 8.5-1.1 12.2-2.9.5-.2.9-.5 1.4-.8 7.4-4.4 12.6-12.2 13.2-21.3 0-.6.1-1.2.1-1.8v-.6l111.7-64.5c1 .6 2.1 1.2 3.2 1.7 3.2 1.4 6.8 2.1 10.5 2.1 5.3 0 10.3-1.6 14.5-4.3 7.4-4.8 12.3-13.1 12.3-22.5v-.4c-.1-9.2-4.9-17.2-12-21.9h-.2V254h41.8c4.9 5.3 11.9 8.6 19.7 8.6 3.7 0 7.2-.8 10.5-2.1 8-3.4 14-10.7 15.8-19.4.3-1.7.5-3.4.5-5.2-.1-14.8-12.1-26.8-26.9-26.8ZM52.6 229l-.3-1 195.2-175.7c2.6.9 5.4 1.3 8.3 1.3 2.6 0 5.1-.4 7.5-1.1l71.8 64.7c-.7 2.4-1.1 5-1.1 7.6 0 3 .5 5.8 1.4 8.5l-50.5 45.4-27.3-24.6c1.1-2.9 1.7-6.1 1.7-9.4 0-14.8-12-26.8-26.8-26.8S206 113.1 206 127.9c0 2.5.3 5 1 7.3l-85.3 76.8H52.6Zm256 218.3l-38.3 22.1c-.8-.5-1.6-1-2.4-1.4v-32.1h19.5v-25h-64v25h19.5v32.4c-.7.4-1.4.8-2.1 1.3l-38.6-22.3-9.9-49.2 24.5-18.2h77.3l24.5 18.2-9.9 49.2Zm88.8-68.1c-9.6 4.1-16.3 13.6-16.3 24.6 0 .5 0 1.1.1 1.6l-43.7 25.2 3.2-16.1 5.5-27.1-22.2-16.5-21.7-16.1h-93.8l-21.7 16.1-22.2 16.5 5.5 27.1 3.2 16.1-43.7-25.2c0-.5.1-1.1.1-1.6 0-11.1-6.7-20.5-16.3-24.6V253.9h284v125.3Zm60.6-150.3H158.9l65.2-58.7c2.7.9 5.5 1.4 8.4 1.4 2.1 0 4.2-.3 6.2-.7l27.5 24.7 18.7 16.8 18.7-16.8 50-45c2.3.6 4.7 1 7.2 1 3.6 0 7.1-.7 10.3-2.1l87.1 78.5-.3.9Z"/>
  <path fill="#3a3d98" d="m354.8 260.6-50 36.3v30.9l50-36.3v-30.9zm-149 36.3-50-36.3v30.9l50 36.3v-30.9z"/>
</svg>
