<?xml version="1.0" encoding="UTF-8"?>
<svg id="Layer_2" data-name="Layer 2" xmlns="http://www.w3.org/2000/svg" viewBox="0 0 510.52 518.52">
  <defs>
    <style>
      .cls-1 {
        fill: currentColor;
      }
    </style>
  </defs>
  <g id="Layer_1-2" data-name="Layer 1">
    <g>
      <path class="cls-1" d="M483.76,209c-2.76,0-5.42.42-7.92,1.19l-88.87-80.02c.36-1.74.55-3.56.55-5.41,0-14.78-11.98-26.76-26.76-26.76-2.83,0-5.56.44-8.12,1.26l-71.4-64.29c.83-2.59,1.28-5.35,1.28-8.21,0-14.78-11.98-26.76-26.76-26.76s-26.76,11.98-26.76,26.76c0,2.6.37,5.12,1.07,7.5L34.68,210.19c-2.5-.77-5.16-1.19-7.92-1.19-14.78,0-26.76,11.98-26.76,26.76,0,1.78.17,3.52.51,5.2,1.73,8.78,7.75,16.02,15.78,19.44,3.22,1.36,6.76,2.12,10.47,2.12,7.79,0,14.81-3.33,19.7-8.65h41.8v127.4c-.07.04-.15.09-.22.14-7.15,4.72-11.9,12.77-12.03,21.94-.01.14-.01.27-.01.41,0,9.43,4.88,17.73,12.26,22.49,4.17,2.71,9.15,4.27,14.5,4.27,3.73,0,7.28-.76,10.5-2.14,1.13-.48,2.21-1.03,3.25-1.65l112.31,64.84v.19c0,.49.01.96.04,1.44h0c.48,9.11,5.52,17,12.86,21.46.34.21.69.41,1.04.6,3.81,2.08,8.18,3.26,12.82,3.26,4.39,0,8.53-1.06,12.18-2.93.46-.24.92-.49,1.36-.75,7.42-4.36,12.56-12.2,13.16-21.28.04-.6.06-1.2.06-1.8,0-.18,0-.37-.01-.55l111.68-64.48c1.04.62,2.12,1.17,3.25,1.65,3.22,1.38,6.77,2.14,10.5,2.14,5.35,0,10.33-1.56,14.5-4.27,7.38-4.76,12.26-13.06,12.26-22.49,0-.14,0-.27-.01-.41-.13-9.17-4.88-17.22-12.03-21.94-.07-.05-.15-.1-.22-.14v-127.4h41.8c4.89,5.32,11.91,8.65,19.7,8.65,3.71,0,7.25-.76,10.47-2.12,8.03-3.42,14.05-10.66,15.78-19.44.34-1.68.51-3.42.51-5.2,0-14.78-11.98-26.76-26.76-26.76ZM52.62,228.87c-.08-.32-.17-.64-.27-.95L247.49,52.21c2.6.85,5.38,1.31,8.27,1.31,2.61,0,5.14-.37,7.52-1.08l71.83,64.68c-.72,2.42-1.11,4.99-1.11,7.64,0,2.98.49,5.84,1.39,8.51l-50.47,45.44-27.28-24.57c1.1-2.92,1.7-6.08,1.7-9.38,0-14.78-11.98-26.76-26.76-26.76s-26.76,11.98-26.76,26.76c0,2.54.35,5,1.02,7.33l-85.26,76.78H52.62ZM308.49,447.23l-38.3,22.11c-.78-.51-1.59-.98-2.43-1.41v-32.06h19.5v-25h-64v25h19.5v32.41c-.72.38-1.41.81-2.09,1.26l-38.64-22.31-9.93-49.18,24.49-18.18h77.34l24.49,18.18-9.93,49.18ZM397.26,379.14c-9.56,4.08-16.26,13.57-16.26,24.62,0,.53.02,1.06.05,1.58l-43.7,25.23,3.24-16.06,5.47-27.07-22.17-16.46-21.71-16.11h-93.84l-21.71,16.11-22.17,16.46,5.47,27.07,3.24,16.06-43.7-25.23c.03-.52.05-1.05.05-1.58,0-11.05-6.7-20.54-16.26-24.62v-125.27h284v125.27ZM457.9,228.87H158.94l65.2-58.72c2.65.89,5.49,1.37,8.44,1.37,2.13,0,4.21-.25,6.19-.72l27.47,24.73,18.68,16.82,18.69-16.82,49.96-44.99c2.29.64,4.7.98,7.19.98,3.64,0,7.11-.73,10.28-2.05l87.13,78.45c-.1.31-.19.63-.27.95Z"/>
      <polygon class="cls-1" points="354.76 260.55 304.76 296.87 304.76 327.78 354.76 291.45 354.76 260.55"/>
      <polygon class="cls-1" points="205.76 296.87 155.76 260.55 155.76 291.45 205.76 327.78 205.76 296.87"/>
    </g>
  </g>
</svg>