<?xml version="1.0" encoding="UTF-8"?>
<svg id="Layer_2" data-name="Layer 2" xmlns="http://www.w3.org/2000/svg" viewBox="0 0 668.87 531.49">
  <defs>
    <style>
      .cls-1 {
        fill: #e16e13;
      }

      .cls-2 {
        fill: #846bfd;
      }

      .cls-3 {
        fill: #0c041b;
      }

      .cls-4 {
        fill: #f6c81a;
      }

      .cls-5 {
        fill: #4f29e0;
      }

      .cls-6 {
        fill: #decab1;
      }
    </style>
  </defs>
  <g id="Layer_1-2" data-name="Layer 1">
    <g>
      <path class="cls-3" d="M148.06,346.35l-46.03,64.76C43.05,386.78,14.23,349.01,0,289.18l90.9-22.5-73.37-23.54c12.67-50.37,35.03-80.89,76.35-107.03l46.32,52.93c2.35-2.91,14.15-189.04,248.87-189.04,181.88,0,239.36,108.47,252.11,139.59,37.71,26.55,35.35,137.93,2.24,150.51,1.3,16.72,3.49,30.77,5.04,51.03,3.98,52.16-24.39,104.73-67.53,139.02-50.59,40.22-119.62,57.3-189.7,49.5-179.35-19.99-229.3-127.88-243.17-183.29h0Z"/>
      <path class="cls-1" d="M415.33,180.63c71.91-9.46,141.82.63,199.86,39.72.53-13.61-1.96-35.9-5.95-40.85-52.59-41.29-122.1-53.65-192.84-47.2-86.5,7.87-174.11,43.49-236.2,89.14-3.83,9.35-4.94,20.65-4.03,32.3.52,6.68,1.71,13.36,3.45,19.79,71.08-46.56,154.74-82.26,235.72-92.9h0Z"/>
      <path class="cls-4" d="M614.26,199.55c-1.03-9.07-2.79-17.28-5.02-20.05-52.59-41.29-122.1-53.65-192.84-47.2-61.65,5.61-123.87,25.32-177.01,52.7,10.84,13.35,31.54,16.47,78.2-2.4,106.12-42.93,216.78-38.75,296.67,16.95h0Z"/>
      <path class="cls-5" d="M205.84,145.02c95.89-51.99,221.19-81.65,328.5-56.13-82.65-54.67-271.3-62.76-328.5,56.13h0Z"/>
      <path class="cls-2" d="M349.2,91.32c61.91-13.81,126.24-16.44,185.15-2.43-60.84-40.25-167.71-50.49-243.27-20.97,10.69,9.07,28.6,17.7,58.12,23.4Z"/>
      <path class="cls-5" d="M205.66,317.78c-3.46,2.28-6.87,4.56-10.21,6.86,6.48,36.26,39.01,135.98,201.41,154.09,70.7,7.89,147.38-15.06,184.23-74.56-40.11,1.51-84.29-26.4-110.89-26.4-34.92,0-130.45,68.88-211.51,17.89-28.42-17.88-45.05-45.5-53.03-77.88Z"/>
      <path class="cls-2" d="M466.93,476.3c46.76-8.73,89.43-32.2,114.16-72.13-40.11,1.51-84.29-26.4-110.89-26.4-24.14,0-77.27,32.93-134.56,36.39,28.21,46.03,77.67,64.06,131.29,62.14h0Z"/>
      <path class="cls-6" d="M591.25,266.04c-14.92-10.71-30.87-18.88-47.56-24.84-17.93-.58-36.13,6.16-58.51,20.78.11-12.55,2.96-23.22,7.95-32.14-21.29-2.3-43.24-1.88-65.4.74,3.94,10.26,5.57,22.82,5.4,37.88-22.08-24.71-53.7-25.92-69.42-24.72-38.71,11.12-76.65,27.43-111.27,46.12,8.51,63.95,52.52,86.68,117.44,66.18,79.59-25.13,81.26-42.63,158.04-16.04,26.79,9.28,55.11,19.08,68.81-2.62-2.69-27.97-5.35-42.72-5.49-71.34Z"/>
      <path class="cls-3" d="M364.12,256.19c48.91,0,48.9,86.3,0,86.3-22.56,0-39.46-22.89-36.9-48.24l30.97-3.57-18.2-24.14c6.5-6.45,14.92-10.34,24.14-10.34h0ZM543.57,255.06c44.1,0,44.1,81.8,0,81.8-20.34,0-35.59-21.69-33.28-45.72l27.92-3.39-16.41-22.89c5.86-6.11,13.46-9.8,21.77-9.8Z"/>
    </g>
  </g>
</svg>