<?xml version="1.0" encoding="UTF-8"?>
<svg id="Layer_2" data-name="Layer 2" xmlns="http://www.w3.org/2000/svg" viewBox="0 0 1149 1263.15">
  <defs>
    <style>
      .cls-1, .cls-2, .cls-3, .cls-4, .cls-5, .cls-6 {
        fill-rule: evenodd;
      }

      .cls-1, .cls-7 {
        fill: #531a45;
      }

      .cls-2 {
        fill: #fbb040;
      }

      .cls-3 {
        fill: #fff;
      }

      .cls-4 {
        fill: #f3c536;
      }

      .cls-5 {
        fill: #c9d0f7;
      }

      .cls-6 {
        fill: #f7941e;
      }
    </style>
  </defs>
  <g id="mascot_logo" data-name="mascot logo">
    <g>
      <path class="cls-7" d="M341.16,482.15c5.52-92.89-12.83-187.2-50.93-263.76-31.24-62.81-75.61-113.11-130.49-139.48-24.07,83.91-21.81,161.25-1.3,228.31,24.55,80.26,75.33,146.23,138.3,191.29l44.41-16.37h0ZM351.52,187.89c46.19,92.83,66.82,208.34,56.14,320.04-.49,13.48-8.97,25.96-22.41,30.89l-81.36,29.98-.02-.06c-9.74,3.56-20.98,2.66-30.35-3.42-82.1-53.3-149.06-135.94-180.36-238.28-27.19-88.88-27.42-192.26,12.8-303.58,5.75-17.43,24.34-27.27,42.08-22.06,89.06,26.25,158.5,96.04,203.5,186.49h0Z"/>
      <path class="cls-3" d="M373.47,506.71c20.37-205.26-71.35-424.27-235.08-472.53-81.08,223.23,11.68,410.3,153.72,502.5,27.12-9.99,54.24-19.98,81.36-29.97h0Z"/>
      <path class="cls-5" d="M303.71,318.96c-51.18-19.35-80.37,2.92-91.59,59.2-33.88-68.38-48.39-145-28.29-236.35,53.95,46.37,93.63,105.68,119.88,177.14h0Z"/>
      <path class="cls-7" d="M319.76,313.08c3.25,8.86-1.3,18.69-10.17,21.94-8.87,3.25-18.69-1.3-21.94-10.17-13.84-37.79-30.95-69.78-50.38-97.53-13.33-19.03-27.79-36.15-43.1-51.87-4.39,27.22-4.94,53.9-1.64,80.87,4.51,36.92,16.2,74.43,35.04,114.63,3.99,8.53.3,18.69-8.23,22.68-8.53,3.99-18.69.31-22.68-8.23-20.47-43.67-33.19-84.55-38.12-124.93-4.96-40.63-2.06-80.74,8.69-122.64.64-2.69,1.95-5.25,3.93-7.45,6.32-6.98,17.11-7.52,24.09-1.2,25.23,22.84,48.89,48.49,69.98,78.6,21.15,30.21,39.67,64.77,54.52,105.3h0Z"/>
      <path class="cls-7" d="M548.51,507.92c-10.69-111.69,9.95-227.21,56.14-320.04C649.64,97.44,719.09,27.65,808.15,1.39c17.74-5.21,36.33,4.63,42.07,22.06,40.22,111.32,39.99,214.7,12.8,303.58-31.3,102.34-98.25,184.99-180.36,238.28-9.37,6.08-20.61,6.98-30.35,3.42l-.03.06-81.36-29.98c-13.44-4.93-21.93-17.41-22.41-30.89h0ZM665.94,218.39c-38.1,76.56-56.45,170.87-50.93,263.76l44.42,16.37c62.96-45.06,113.75-111.03,138.3-191.29,20.52-67.06,22.78-144.4-1.3-228.31-54.88,26.37-99.24,76.67-130.48,139.48h0Z"/>
      <path class="cls-3" d="M582.7,506.71c-20.37-205.26,71.36-424.27,235.08-472.53,81.08,223.23-11.68,410.3-153.73,502.5-27.12-9.99-54.24-19.98-81.36-29.97h0Z"/>
      <path class="cls-5" d="M652.46,318.96c51.18-19.35,80.38,2.92,91.59,59.2,33.88-68.38,48.39-145,28.3-236.35-53.96,46.37-93.63,105.68-119.88,177.14h0Z"/>
      <path class="cls-7" d="M668.52,324.85c-3.25,8.86-13.07,13.42-21.94,10.17-8.86-3.25-13.42-13.08-10.17-21.94,14.85-40.53,33.37-75.09,54.52-105.3,21.09-30.11,44.75-55.76,69.98-78.6,6.98-6.32,17.77-5.78,24.08,1.2,1.99,2.19,3.29,4.76,3.94,7.45,10.76,41.9,13.65,82.01,8.69,122.64-4.92,40.38-17.64,81.26-38.11,124.93-3.99,8.53-14.14,12.21-22.68,8.23-8.53-3.99-12.22-14.15-8.23-22.68,18.85-40.19,30.54-77.71,35.04-114.63,3.29-26.97,2.75-53.65-1.64-80.87-15.31,15.71-29.77,32.84-43.1,51.87-19.44,27.75-36.53,59.74-50.38,97.53h0Z"/>
      <path class="cls-7" d="M738.5,539.41c35.32-47.44,76.65-82.48,126.92-109.23.97-.51,1.96-.98,2.95-1.4,48.19-25.16,104.16-42.62,170.67-56.12,20.56-4.11,40.56,9.22,44.67,29.78,1.98,9.93-.11,19.73-5.1,27.67l.04.02c-19.44,30.83-30.16,53.88-33.03,74.57-2.67,19.23,1.52,39.03,11.77,64.4,7.81,19.49-1.66,41.63-21.15,49.44-6.59,2.64-13.49,3.3-20.04,2.27-34.84-4.69-69.67-5.84-102.74-.91-31.61,4.7-61.59,15.05-88.25,33.39-17.27,11.92-40.95,7.59-52.87-9.68-.97-1.4-1.82-2.84-2.58-4.31l-33.65-58.34c-7.76-13.5-6.29-29.77,2.41-41.53l-.03-.02h0ZM901.15,497.48c-33.31,17.72-61.63,39.83-86.26,68.13l2.61,4.54c27.11-13.07,55.63-21.24,84.93-25.6,22.33-3.32,45.11-4.4,68.04-3.77-2.28-15.55-2.4-30.75-.21-46.5,1.28-9.2,3.34-18.37,6.21-27.7-26.69,8.34-50.83,17.98-72.72,29.39-.84.53-1.7,1.04-2.6,1.52h0Z"/>
      <path class="cls-2" d="M769.02,562.04c63.38-85.13,148.83-126.05,277.46-152.17-44.74,70.97-49.89,110.2-24.38,173.36-76.96-10.48-154.59-5.16-218.49,38.77-14.22-24.66-20.36-35.31-34.58-59.97h0Z"/>
      <path class="cls-6" d="M769.02,562.04c39.42-52.95,87.39-88.79,148.97-114.61-15.67,51.4-9.86,85.97,17.45,131.92-12.46.77-24.78,2.22-36.91,4.43-35.79,3.55-70.54,11.27-102.42,25.22l-27.08-46.96h0Z"/>
      <path class="cls-7" d="M751.65,625.18c58.3-9.75,125.63-6.98,193.3,8.24,63.92,14.38,128.47,39.92,186.28,76.54,17.76,11.18,23.1,34.65,11.91,52.42-6.24,9.92-16.32,15.96-27.1,17.42h0c-23.43,3.16-38.18,8.71-49.09,18.3-12.41,10.91-23.21,29.08-36.95,55.42-9.7,18.67-32.71,25.94-51.37,16.23-5.51-2.86-10.03-6.89-13.41-11.62-21.23-25.96-60.72-53.97-103.23-75.91-42.4-21.88-85.96-36.98-115.1-36.99-20.97,0-37.97-17-37.97-37.97,0-3.13.38-6.16,1.1-9.07l-.05-.02,10.99-44.55c3.74-15.21,16.15-26.01,30.68-28.44h0ZM928.28,707.58c-23.34-5.25-46.55-8.79-69.12-10.61,12.64,5.31,25.29,11.24,37.7,17.64,33.04,17.05,65.07,37.81,91.12,59.59,8.73-12.9,17.9-23.83,28.66-33.29,1.33-1.17,2.67-2.31,4.03-3.42-30.21-12.96-61.38-22.94-92.38-29.91h0Z"/>
      <path class="cls-2" d="M757.9,662.7c104.67-17.52,242.21,9.19,353.09,79.43-63.05,8.48-83.2,33.25-114.77,93.81-48.27-60.87-178.11-128.63-249.31-128.69l10.99-44.55h0Z"/>
      <path class="cls-6" d="M757.9,662.7c71.43-11.95,158.17-3.3,241.3,25.72-32.32,15.29-48.64,41.73-70.39,88.04-34.81-40.35-107.23-82.33-173.13-104.73l2.22-9.02h0Z"/>
      <path class="cls-7" d="M478.09,427.67c-87.3,0-158.1,18.83-212.14,51.69-56.26,34.22-94.96,84-115.57,143.66l-3.78,10.93c-37.06,107.13-74.93,216.63-70.17,326.03,3.2,73.67,44.61,124.43,101.77,158.68,87.25,52.27,210.31,68.24,299.89,68.24s212.63-15.96,299.88-68.24c57.16-34.25,98.58-85.01,101.78-158.68,4.76-109.4-33.12-218.9-70.17-326.03l-3.79-10.93c-20.61-59.66-59.3-109.44-115.57-143.66-54.04-32.86-124.84-51.69-212.13-51.69h0ZM226.34,414.44c65.87-40.06,150.04-63.01,251.75-63.01s185.87,22.95,251.74,63.01c71.85,43.69,121.33,107.42,147.74,183.87l3.78,10.94c39.42,113.97,79.72,230.47,74.34,354.02-4.5,103.7-60.91,174.02-138.7,220.63-101.33,60.72-239.39,79.26-338.89,79.26s-237.56-18.54-338.9-79.26C61.4,1137.28,4.98,1066.96.48,963.26c-5.38-123.55,34.92-240.05,74.34-354.02l3.79-10.94c26.4-76.45,75.88-140.17,147.73-183.87h0Z"/>
      <path class="cls-3" d="M478.09,389.55c-195.47,0-318.08,89.35-363.6,221.11-39.4,114.04-81.27,230.64-76.04,350.96,9.23,212.62,277.43,263.4,439.63,263.4s430.4-50.78,439.63-263.4c5.23-120.32-36.64-236.92-76.04-350.96-45.52-131.76-168.13-221.11-363.59-221.11h0Z"/>
      <path class="cls-5" d="M386.36,396.81c-142.5,23.75-233.94,104.08-271.86,213.86-39.4,114.04-81.27,230.64-76.04,350.96,9.04,208.43,266.93,261.33,429.89,263.34-150.54-38.99-304.69-120.86-318.58-269.7-16.65-178.42,80.42-456.4,236.58-558.46h0Z"/>
      <path class="cls-1" d="M478.11,922.57c112.52,0,86.78,54.12,0,80.15-86.77-26.03-112.52-80.15,0-80.15h0Z"/>
      <path class="cls-7" d="M343.38,1045.06c.59-9.44,8.72-16.61,18.16-16.02,9.44.59,16.61,8.72,16.01,18.16-.32,4.89,8.18,9.49,19.33,12.71,6.84,1.98,14.53,3.15,22.3,3.44,7.75.29,15.4-.28,22.18-1.79,10.76-2.39,19.02-6.82,19.05-13.21l.58-88.39c.03-9.44,7.71-17.05,17.15-17.02,9.44.04,17.05,7.72,17.02,17.16l-.58,88.39c-.17,25.82-20,40.69-45.85,46.44-9.71,2.16-20.3,2.99-30.76,2.59-10.42-.39-20.93-2.02-30.48-4.78-26.12-7.54-45.67-23.71-44.12-47.69h0Z"/>
      <path class="cls-7" d="M578.62,1047.2c-.59-9.44,6.57-17.57,16.02-18.16,9.44-.59,17.57,6.58,18.16,16.02,1.55,23.98-18,40.16-44.12,47.69-9.55,2.75-20.06,4.39-30.48,4.78-10.46.4-21.05-.43-30.76-2.59-25.86-5.75-45.69-20.62-45.85-46.44l-.58-88.39c-.04-9.44,7.58-17.12,17.02-17.16,9.44-.04,17.12,7.58,17.16,17.02l.57,88.39c.04,6.39,8.29,10.81,19.05,13.21,6.79,1.51,14.44,2.08,22.18,1.79,7.78-.29,15.47-1.46,22.31-3.44,11.14-3.22,19.64-7.82,19.32-12.71h0Z"/>
      <path class="cls-7" d="M401.59,840.32c5.68,8.84,3.11,20.61-5.73,26.28-8.84,5.67-20.61,3.1-26.28-5.73-16.1-25.14-44.9-43.06-77.43-50.91-32.28-7.78-67.89-5.54-98.28,9.43-9.41,4.65-20.82.78-25.46-8.63-4.65-9.41-.78-20.82,8.63-25.46,38.7-19.06,83.61-22.01,124.04-12.26,41.67,10.05,79,33.7,100.51,67.29h0Z"/>
      <path class="cls-7" d="M587.82,860.87c-5.67,8.84-17.44,11.41-26.28,5.73-8.84-5.67-11.41-17.44-5.73-26.28,21.51-33.59,58.84-57.24,100.51-67.29,40.44-9.75,85.35-6.8,124.04,12.26,9.41,4.65,13.28,16.05,8.63,25.46-4.65,9.41-16.05,13.28-25.46,8.63-30.4-14.97-66.01-17.21-98.29-9.43-32.53,7.85-61.32,25.76-77.43,50.91h0Z"/>
      <path class="cls-6" d="M391.38,753.28c-24.75-8.73-21.72-55.43-89.57-77.29,53.25-17.25,105.51,1.5,125.35,24.5,22.19,25.71,11.14,69.34-35.78,52.78h0Z"/>
      <path class="cls-6" d="M564.79,753.28c24.75-8.73,21.71-55.43,89.57-77.29-53.25-17.25-105.51,1.5-125.35,24.5-22.19,25.71-11.14,69.34,35.78,52.78h0Z"/>
      <path class="cls-7" d="M182.27,558.8c-5.47,8.18-10.56,16.79-15.26,25.83l-.81,1.56c109.52-23.73,226.87-35.86,340.28-34.46,100.48,1.25,198.09,13.06,284.81,36.77l-.26-.51c-3.83-7.63-8.08-15.15-12.74-22.52-85.38-32.69-191.29-47.67-294.71-48.82-115.26-1.28-226.17,14.55-301.31,42.15h0ZM99.4,549.49c7.96-15.32,17.21-30.18,27.71-44.51h0c4.06-5.54,9.67-10.06,16.53-12.8,83.69-33.47,210.36-52.91,340.54-51.47,115.73,1.28,235.34,19.01,331.51,57.94,7.47,2.53,14.23,7.4,19.05,14.39,8.87,12.87,16.95,26.57,24.2,41.01,7.12,14.16,13.32,28.94,18.62,44.26l3.96,11.47c11.95,34.53-3.33-10.32,9.53,27.18,2.98,8.37,3.05,17.82-.46,26.73-7.73,19.57-29.87,29.17-49.44,21.44-95.39-37.7-212.9-55.93-335.56-57.44-131.79-1.63-269.09,15.94-391.4,49.35h0c-7.11,1.93-14.84,1.83-22.33-.75-19.82-6.82-30.35-28.43-23.53-48.24l10.28-29.74c6.04-17.52,12.99-33.82,20.79-48.82h0Z"/>
      <path class="cls-2" d="M157.79,527.47c-18.42,25.14-32.88,53.05-43.3,83.19l-10.28,29.74c243.84-66.61,545.44-71.92,750.93,9.28-4.48-13.04-8.99-26.05-13.47-39.02-9.44-27.31-22.19-52.79-38.21-76.03-194.49-79.63-495.26-67.33-645.68-7.16h0Z"/>
      <path class="cls-4" d="M813.72,634.9c14.19,4.57,28.02,9.49,41.42,14.79-4.48-13.04-8.99-26.05-13.47-39.02-9.44-27.31-22.19-52.79-38.21-76.03-16.02-6.56-32.76-12.48-50.08-17.81,26.24,36.45,45.41,76.65,60.33,118.08h0Z"/>
      <path class="cls-6" d="M157.79,527.47l-.86,1.18c-3.72,5.13-7.27,10.36-10.66,15.71l-.78,1.24-2.3,3.73-.76,1.25-.21.35-1.29,2.16-.74,1.27-.73,1.26-.02.04-1.38,2.43-.04.08-.71,1.28-.71,1.28-1.09,2.01-.31.57-.69,1.29-.24.46-1.09,2.08-1.26,2.46-1.31,2.61-1.39,2.85-.73,1.52-1.47,3.11-.82,1.79-1.53,3.39-.52,1.19-1.67,3.87-.38.9c-.6,1.42-1.19,2.85-1.76,4.28l-.09.22-.04.1-.12.31c-.61,1.55-1.22,3.09-1.81,4.65l-.03.08-.15.4-1.57,4.18-.18.5-.1.27c-.58,1.62-1.16,3.24-1.72,4.86l-1.85,5.35-1.85,5.35-1.85,5.35-1.85,5.36-1.86,5.36-1.02,2.96c36.54-9.98,74.36-18.57,112.97-25.71,19.82-43.83,43.47-85.24,70.43-121.5-49.5,8.3-93.94,19.92-129.82,34.28h0Z"/>
    </g>
  </g>
</svg>