<?xml version="1.0" encoding="UTF-8"?>
<svg id="Layer_2" data-name="Layer 2" xmlns="http://www.w3.org/2000/svg" viewBox="0 0 1155.21 163.31">
  <defs>
    <style>
      .cls-1 {
        fill: #231f20;
      }
    </style>
  </defs>
  <g id="Layer_1-2" data-name="Layer 1">
    <g>
      <path class="cls-1" d="M159.75,81.54C159.75,37.05,196.39,1.07,242.18,1.07s82.76,35.98,82.76,80.47-36.64,80.8-82.76,80.8-82.43-36.64-82.43-80.8ZM285.36,81.54c0-22.24-19.3-41.87-43.18-41.87s-42.85,19.63-42.85,41.87,19.3,42.2,42.85,42.2,43.18-19.63,43.18-42.2Z"/>
      <path class="cls-1" d="M991,82.84c0-48.74,39.58-81.78,75.56-81.78,24.53,0,38.6,7.52,48.08,21.92l3.77-18.97h36.79v155.38h-36.79l-4.75-16.03c-10.8,11.77-24.21,18.97-47.1,18.97-35.33,0-75.56-31.08-75.56-79.49ZM1116.61,82.52c0-23.55-19.3-42.85-43.18-42.85s-42.85,19.3-42.85,43.18c0,21.59,19.3,40.89,42.85,40.89s43.18-19.3,43.18-41.22Z"/>
      <path class="cls-1" d="M945.79,22V4.01h-40.23v155.38h40.23v-83.74c0-25.19,12.43-38.27,34.02-38.27,1.43,0,2.78.1,4.12.24L991.38.09c-20.98.12-36.19,7.31-45.59,21.9Z"/>
      <path class="cls-1" d="M541.51,22l-.04-17.99-40.23.09.34,155.38,40.23-.09-.18-83.74c-.06-25.19,12.35-38.3,33.94-38.35,1.43,0,2.79.09,4.12.23l7.37-37.53c-20.98.17-36.17,7.39-45.54,22Z"/>
      <path class="cls-1" d="M338.88,99.2V4.01h40.23v90.28c0,19.95,11.12,31.73,30.42,31.73,21.59,0,34.02-13.08,34.02-38.27V4.01h40.23v155.38h-40.23v-17.99c-9.49,14.72-24.86,21.92-46.12,21.92-35.98,0-58.55-26.17-58.55-64.11Z"/>
      <path class="cls-1" d="M730.63,81.72c.08-43.51,31.23-80.74,80.62-80.65,45.79.08,78.11,36.78,78.03,79.96,0,4.25-.34,8.83-1,12.76l-118.41-.22c4.54,18.65,19.89,32.09,43.12,32.14,14.07.03,29.12-5.18,38.3-16.94l27.44,21.97c-14.1,19.93-38.99,31.66-65.48,31.61-46.78-.09-82.69-35.15-82.61-80.62ZM848.75,65.58c-2.26-15.71-18.6-27.84-37.89-27.88-18.64-.03-33.71,11.06-39.63,27.73l77.53.14Z"/>
      <path class="cls-1" d="M587.34,125.52l35.79-18.71c5.91,12.8,17.73,20.36,34.47,20.36,15.43,0,21.34-4.93,21.34-11.82,0-24.95-84.71-9.85-84.71-66.98,0-31.52,27.58-48.27,61.73-48.27,25.94,0,48.92,11.49,61.4,32.83l-35.46,18.71c-5.25-10.51-15.1-16.42-27.58-16.42s-18.06,4.27-18.06,11.49c0,24.3,84.71,8.87,84.71,66.98,0,30.2-24.63,48.59-64.36,48.59-33.82,0-57.45-11.16-69.27-36.77Z"/>
      <path class="cls-1" d="M0,81.54C0,36.72,36.64.74,82.43.74c29.44,0,54.95,14.72,69.67,36.96l-34.35,19.95c-7.85-11.12-20.61-18.32-35.33-18.32-23.55,0-42.85,19.63-42.85,42.2s19.3,42.2,42.85,42.2c15.37,0,28.79-7.85,36.31-19.95l34.02,20.28c-14.39,22.9-40.56,38.27-70.33,38.27C36.64,162.33,0,125.7,0,81.54Z"/>
    </g>
  </g>
</svg>