<?xml version="1.0" encoding="UTF-8"?>
<svg id="Layer_2" xmlns="http://www.w3.org/2000/svg" version="1.1" viewBox="0 0 1155.2 163.3">
  <!-- Generator: Adobe Illustrator 29.3.0, SVG Export Plug-In . SVG Version: 2.1.0 Build 146)  -->
  <defs>
    <style>
      .st0 {
        fill: #231f20;
      }
    </style>
  </defs>
  <g id="Layer_1-2">
    <g>
      <path class="st0" d="M159.8,81.5C159.8,37,196.4,1.1,242.2,1.1s82.8,36,82.8,80.5-36.6,80.8-82.8,80.8-82.4-36.6-82.4-80.8ZM285.4,81.5c0-22.2-19.3-41.9-43.2-41.9s-42.9,19.6-42.9,41.9,19.3,42.2,42.9,42.2,43.2-19.6,43.2-42.2Z"/>
      <path class="st0" d="M991,82.8c0-48.7,39.6-81.8,75.6-81.8s38.6,7.5,48.1,21.9l3.8-19h36.8v155.4h-36.8l-4.8-16c-10.8,11.8-24.2,19-47.1,19-35.3,0-75.6-31.1-75.6-79.5h0ZM1116.6,82.5c0-23.5-19.3-42.8-43.2-42.8s-42.8,19.3-42.8,43.2,19.3,40.9,42.8,40.9,43.2-19.3,43.2-41.2Z"/>
      <path class="st0" d="M945.8,22V4h-40.2v155.4h40.2v-83.7c0-25.2,12.4-38.3,34-38.3s2.8,0,4.1.2L991.4,0c-21,.1-36.2,7.3-45.6,21.9h0Z"/>
      <path class="st0" d="M541.5,22V4s-40.3,0-40.3,0l.3,155.4h40.2c0,0-.2-83.8-.2-83.8,0-25.2,12.3-38.3,33.9-38.3,1.4,0,2.8,0,4.1.2L587.1,0c-21,.2-36.2,7.4-45.5,22h0Z"/>
      <path class="st0" d="M338.9,99.2V4h40.2v90.3c0,20,11.1,31.7,30.4,31.7s34-13.1,34-38.3V4h40.2v155.4h-40.2v-18c-9.5,14.7-24.9,21.9-46.1,21.9-36,0-58.5-26.2-58.5-64.1h0Z"/>
      <path class="st0" d="M730.6,81.7c0-43.5,31.2-80.7,80.6-80.7,45.8,0,78.1,36.8,78,80,0,4.2-.3,8.8-1,12.8l-118.4-.2c4.5,18.7,19.9,32.1,43.1,32.1,14.1,0,29.1-5.2,38.3-16.9l27.4,22c-14.1,19.9-39,31.7-65.5,31.6-46.8,0-82.7-35.2-82.6-80.6h0ZM848.8,65.6c-2.3-15.7-18.6-27.8-37.9-27.9-18.6,0-33.7,11.1-39.6,27.7h77.5c0,.1,0,.1,0,.1Z"/>
      <path class="st0" d="M587.3,125.5l35.8-18.7c5.9,12.8,17.7,20.4,34.5,20.4s21.3-4.9,21.3-11.8c0-25-84.7-9.8-84.7-67S621.8,0,656,0s48.9,11.5,61.4,32.8l-35.5,18.7c-5.2-10.5-15.1-16.4-27.6-16.4s-18.1,4.3-18.1,11.5c0,24.3,84.7,8.9,84.7,67s-24.6,48.6-64.4,48.6-57.5-11.2-69.3-36.8h0Z"/>
      <path class="st0" d="M0,81.5C0,36.7,36.6.7,82.4.7s55,14.7,69.7,37l-34.3,20c-7.8-11.1-20.6-18.3-35.3-18.3-23.5,0-42.8,19.6-42.8,42.2s19.3,42.2,42.8,42.2,28.8-7.8,36.3-19.9l34,20.3c-14.4,22.9-40.6,38.3-70.3,38.3C36.6,162.3,0,125.7,0,81.5Z"/>
    </g>
  </g>
</svg>