<?xml version="1.0" encoding="UTF-8"?>
<svg id="Layer_2" data-name="Layer 2" xmlns="http://www.w3.org/2000/svg" viewBox="0 0 595.91 310.72">
  <defs>
    <style>
      .cls-1 {
        fill: #fff;
      }

      .cls-2 {
        fill: #02262b;
      }
    </style>
  </defs>
  <g id="Layer_1-2" data-name="Layer 1">
    <g>
      <polygon class="cls-2" points="353.43 50.96 364.08 0 51.3 0 0 245.01 261.52 245.01 247.12 310.72 497.63 310.72 552.88 50.96 353.43 50.96"/>
      <path class="cls-1" d="M106.6,213.73c-7.09,0-13.79-1.16-20.09-3.49-6.3-2.32-11.8-5.75-16.49-10.28-4.69-4.53-8.39-10.1-11.11-16.72-2.72-6.62-4.08-14.22-4.08-22.81,0-11.74,1.63-22.44,4.9-32.09,3.27-9.65,7.82-17.92,13.65-24.82,5.83-6.89,12.82-12.23,20.98-16.01,8.15-3.78,17.08-5.67,26.77-5.67,6.54,0,12.74,1.14,18.62,3.43,5.87,2.29,11.01,5.61,15.42,9.99,4.41,4.37,7.92,9.75,10.52,16.13,2.6,6.38,3.9,13.71,3.9,21.98,0,1.26-.04,2.74-.12,4.43-.08,1.7-.2,3.43-.36,5.2-.16,1.77-.32,3.51-.47,5.2-.16,1.69-.35,3.13-.59,4.31h-91.83c-.08,1.11-.14,2.17-.18,3.19-.04,1.03-.06,2.09-.06,3.19,0,6.54.95,12.11,2.84,16.72,1.89,4.61,4.35,8.37,7.39,11.29,3.03,2.92,6.44,5.02,10.22,6.32,3.78,1.3,7.6,1.95,11.46,1.95,8.43,0,15.21-1.46,20.33-4.37,5.12-2.91,9.02-6.85,11.7-11.82h21.63c-1.34,4.89-3.55,9.46-6.62,13.71-3.07,4.25-6.95,7.94-11.64,11.05-4.69,3.11-10.13,5.56-16.31,7.33-6.19,1.77-12.98,2.66-20.39,2.66ZM148.08,136.08c.08-.39.14-1.12.18-2.19.04-1.06.06-2.11.06-3.13,0-4.18-.61-8.13-1.83-11.88-1.22-3.74-3.05-7.03-5.5-9.87-2.44-2.84-5.48-5.08-9.1-6.74-3.63-1.65-7.84-2.48-12.65-2.48s-9.46.87-13.71,2.6c-4.26,1.73-8.12,4.2-11.58,7.39-3.47,3.19-6.46,7.01-8.98,11.46-2.52,4.45-4.53,9.4-6.03,14.83h69.14Z"/>
      <path class="cls-1" d="M227.58,213.73c-6.38,0-12.37-1.2-17.97-3.61-5.6-2.4-10.5-5.85-14.71-10.34-4.22-4.49-7.55-9.93-9.99-16.31-2.44-6.38-3.66-13.51-3.66-21.39s.77-14.95,2.3-21.92c1.54-6.97,3.72-13.43,6.56-19.38,2.84-5.95,6.24-11.33,10.22-16.13,3.98-4.81,8.39-8.9,13.24-12.29,4.85-3.39,10.08-5.99,15.72-7.8,5.63-1.81,11.52-2.72,17.67-2.72,4.57,0,8.92.63,13.06,1.89,4.14,1.26,7.88,3.01,11.23,5.26,3.35,2.25,6.22,4.96,8.63,8.15,2.4,3.19,4.16,6.68,5.26,10.46h1.89l15.72-74.11h20.68l-37.82,178h-19.62l3.66-17.37h-1.89c-4.65,6.07-10.48,10.85-17.49,14.36-7.01,3.5-14.58,5.26-22.69,5.26ZM234.08,195.41c6.62,0,12.74-1.55,18.38-4.67,5.63-3.11,10.54-7.37,14.71-12.76,4.18-5.4,7.45-11.74,9.81-19.03,2.36-7.29,3.55-15.15,3.55-23.58,0-5.44-.75-10.32-2.25-14.66-1.5-4.33-3.63-8.02-6.38-11.05-2.76-3.03-6.11-5.38-10.05-7.03-3.94-1.66-8.39-2.48-13.36-2.48-6.54,0-12.61,1.46-18.2,4.37-5.6,2.92-10.44,6.97-14.54,12.17-4.1,5.2-7.33,11.41-9.69,18.61-2.36,7.21-3.55,15.11-3.55,23.7,0,5.36.77,10.28,2.31,14.77,1.54,4.49,3.68,8.33,6.44,11.52,2.76,3.19,6.07,5.67,9.93,7.45,3.86,1.77,8.16,2.66,12.88,2.66Z"/>
      <polygon class="cls-1" points="508.94 84.45 462.81 84.45 412.49 146.75 410.01 146.75 383.4 84.45 336.74 84.45 376.74 174.94 290.39 277.23 335.9 277.23 391.32 211.52 395.06 211.52 425 277.23 470.79 277.23 426.51 179.47 508.94 84.45"/>
      <path class="cls-2" d="M579.57,83.31c-2.26,0-4.38-.42-6.35-1.27-1.98-.84-3.71-2.02-5.21-3.51s-2.67-3.23-3.51-5.21c-.84-1.98-1.27-4.09-1.27-6.35s.42-4.38,1.27-6.35c.84-1.97,2.02-3.71,3.51-5.21s3.23-2.67,5.21-3.51c1.97-.84,4.09-1.27,6.35-1.27s4.38.42,6.36,1.27c1.97.85,3.71,2.02,5.21,3.51s2.67,3.24,3.51,5.21c.84,1.98,1.27,4.09,1.27,6.35s-.42,4.38-1.27,6.35-2.02,3.71-3.51,5.21-3.23,2.67-5.21,3.51c-1.98.84-4.09,1.27-6.36,1.27ZM579.57,80.26c2.45,0,4.68-.6,6.69-1.8,2.01-1.2,3.61-2.8,4.81-4.81,1.2-2.01,1.8-4.24,1.8-6.69s-.6-4.68-1.8-6.69c-1.2-2.01-2.8-3.61-4.81-4.81-2.01-1.2-4.24-1.8-6.69-1.8s-4.68.6-6.69,1.8c-2.01,1.2-3.61,2.8-4.81,4.81-1.2,2.01-1.8,4.24-1.8,6.69s.6,4.68,1.8,6.69c1.2,2.01,2.8,3.61,4.81,4.81,2.01,1.2,4.24,1.8,6.69,1.8ZM574.03,74.32v-15.08h7.23c.76,0,1.5.18,2.22.54.72.36,1.31.89,1.78,1.59.47.7.71,1.56.71,2.59s-.24,1.9-.73,2.65c-.48.74-1.1,1.31-1.84,1.71-.74.4-1.51.59-2.3.59h-5.6v-2.06h4.9c.69,0,1.32-.25,1.87-.75s.83-1.21.83-2.13-.28-1.63-.83-2.04-1.15-.61-1.81-.61h-3.8v13.02h-2.64ZM582.82,67.31l3.76,7.01h-2.94l-3.66-7.01h2.84Z"/>
    </g>
  </g>
</svg>