<?xml version="1.0" encoding="UTF-8"?>
<svg id="Layer_2" xmlns="http://www.w3.org/2000/svg" version="1.1" viewBox="0 0 595.9 310.7">
  <!-- Generator: Adobe Illustrator 29.3.0, SVG Export Plug-In . SVG Version: 2.1.0 Build 146)  -->
  <defs>
    <style>
      .st0 {
        fill: #fff;
      }

      .st1 {
        fill: #231f20;
      }
    </style>
  </defs>
  <path class="st1" d="M141,109c-2.4-2.8-5.5-5.1-9.1-6.7-3.6-1.7-7.8-2.5-12.7-2.5s-9.5.9-13.7,2.6c-4.3,1.7-8.1,4.2-11.6,7.4-3.5,3.2-6.5,7-9,11.5-2.5,4.5-4.5,9.4-6,14.8h69.1c0-.4.1-1.1.2-2.2,0-1.1,0-2.1,0-3.1,0-4.2-.6-8.1-1.8-11.9-1.2-3.7-3-7-5.5-9.9Z"/>
  <path class="st1" d="M271.9,109.7c-2.8-3-6.1-5.4-10-7-3.9-1.7-8.4-2.5-13.4-2.5s-12.6,1.5-18.2,4.4c-5.6,2.9-10.4,7-14.5,12.2-4.1,5.2-7.3,11.4-9.7,18.6-2.4,7.2-3.5,15.1-3.5,23.7s.8,10.3,2.3,14.8,3.7,8.3,6.4,11.5,6.1,5.7,9.9,7.5c3.9,1.8,8.2,2.7,12.9,2.7h0c6.6,0,12.7-1.5,18.4-4.7,5.6-3.1,10.5-7.4,14.7-12.8,4.2-5.4,7.5-11.7,9.8-19,2.4-7.3,3.5-15.1,3.5-23.6s-.8-10.3-2.2-14.7c-1.5-4.3-3.6-8-6.4-11Z"/>
  <path class="st1" d="M353.4,51L364.1,0H51.3L0,245h261.5l-14.4,65.7h250.5l55.2-259.8h-199.5ZM169.5,137.8c0,1.7-.2,3.4-.4,5.2-.2,1.8-.3,3.5-.5,5.2-.2,1.7-.4,3.1-.6,4.3h-91.8c0,1.1-.1,2.2-.2,3.2,0,1,0,2.1,0,3.2,0,6.5,1,12.1,2.8,16.7,1.9,4.6,4.3,8.4,7.4,11.3,3,2.9,6.4,5,10.2,6.3,3.8,1.3,7.6,1.9,11.5,1.9,8.4,0,15.2-1.5,20.3-4.4,5.1-2.9,9-6.8,11.7-11.8h21.6c-1.3,4.9-3.5,9.5-6.6,13.7s-6.9,7.9-11.6,11c-4.7,3.1-10.1,5.6-16.3,7.3-6.2,1.8-13,2.7-20.4,2.7,0,0,0,0,0,0h0s0,0,0,0c-7.1,0-13.8-1.2-20.1-3.5-6.3-2.3-11.8-5.8-16.5-10.3-4.7-4.5-8.4-10.1-11.1-16.7-2.7-6.6-4.1-14.2-4.1-22.8s1.6-22.4,4.9-32.1c3.3-9.7,7.8-17.9,13.7-24.8,5.8-6.9,12.8-12.2,21-16,8.2-3.8,17.1-5.7,26.8-5.7s12.7,1.1,18.6,3.4c5.9,2.3,11,5.6,15.4,10,4.4,4.4,7.9,9.8,10.5,16.1,2.6,6.4,3.9,13.7,3.9,22s0,2.7-.1,4.4ZM266,211.5l3.7-17.4h-1.9c-4.6,6.1-10.5,10.8-17.5,14.4-7,3.5-14.6,5.3-22.7,5.3h0c-6.4,0-12.4-1.2-18-3.6-5.6-2.4-10.5-5.8-14.7-10.3-4.2-4.5-7.6-9.9-10-16.3s-3.7-13.5-3.7-21.4.8-15,2.3-21.9c1.5-7,3.7-13.4,6.6-19.4,2.8-6,6.2-11.3,10.2-16.1,4-4.8,8.4-8.9,13.2-12.3,4.8-3.4,10.1-6,15.7-7.8,5.6-1.8,11.5-2.7,17.7-2.7s8.9.6,13.1,1.9,7.9,3,11.2,5.3c3.4,2.2,6.2,5,8.6,8.1,2.4,3.2,4.2,6.7,5.3,10.5h1.9l15.7-74.1h20.7l-37.8,178h-19.6ZM470.8,277.2h-45.8l-29.9-65.7h-3.7l-55.4,65.7h-45.5l86.3-102.3-40-90.5h46.7l26.6,62.3h2.5l50.3-62.3h46.1l-82.4,95,44.3,97.8Z"/>
  <polygon class="st0" points="106.6 213.7 106.6 213.7 106.6 213.7 106.6 213.7"/>
  <path class="st1" d="M579.6,83.3c-2.3,0-4.4-.4-6.3-1.3-2-.8-3.7-2-5.2-3.5s-2.7-3.2-3.5-5.2c-.8-2-1.3-4.1-1.3-6.3s.4-4.4,1.3-6.3c.8-2,2-3.7,3.5-5.2s3.2-2.7,5.2-3.5c2-.8,4.1-1.3,6.3-1.3s4.4.4,6.4,1.3c2,.8,3.7,2,5.2,3.5s2.7,3.2,3.5,5.2c.8,2,1.3,4.1,1.3,6.3s-.4,4.4-1.3,6.3-2,3.7-3.5,5.2-3.2,2.7-5.2,3.5c-2,.8-4.1,1.3-6.4,1.3ZM579.6,80.3c2.5,0,4.7-.6,6.7-1.8,2-1.2,3.6-2.8,4.8-4.8,1.2-2,1.8-4.2,1.8-6.7s-.6-4.7-1.8-6.7-2.8-3.6-4.8-4.8-4.2-1.8-6.7-1.8-4.7.6-6.7,1.8-3.6,2.8-4.8,4.8c-1.2,2-1.8,4.2-1.8,6.7s.6,4.7,1.8,6.7,2.8,3.6,4.8,4.8,4.2,1.8,6.7,1.8ZM574,74.3v-15.1h7.2c.8,0,1.5.2,2.2.5s1.3.9,1.8,1.6c.5.7.7,1.6.7,2.6s-.2,1.9-.7,2.7c-.5.7-1.1,1.3-1.8,1.7-.7.4-1.5.6-2.3.6h-5.6v-2.1h4.9c.7,0,1.3-.2,1.9-.8s.8-1.2.8-2.1-.3-1.6-.8-2-1.2-.6-1.8-.6h-3.8v13h-2.6,0ZM582.8,67.3l3.8,7h-2.9l-3.7-7h2.8,0Z"/>
</svg>