<?xml version="1.0" encoding="UTF-8"?>
<svg id="Layer_1" xmlns="http://www.w3.org/2000/svg" version="1.1" viewBox="0 0 475.9 167.3">
  <!-- Generator: Adobe Illustrator 29.3.0, SVG Export Plug-In . SVG Version: 2.1.0 Build 146)  -->
  <defs>
    <style>
      .st0 {
        fill: #231f20;
      }

      .st1 {
        fill: #1d1d1b;
      }
    </style>
  </defs>
  <path class="st1" d="M213.2,28.2h27.2v11.2h-27.2v29.7h-11.8V0h41v11.2h-29.1v17h0ZM267,70.3c-2.2,0-4.4-.4-6.5-1.2-2.1-.8-3.9-1.9-5.5-3.5-1.6-1.5-2.8-3.4-3.8-5.5-1-2.2-1.4-4.7-1.4-7.5v-30.3h11.8v27.1c0,3.5.8,6,2.4,7.6s3.9,2.3,6.9,2.3,2.8-.3,4-.9c1.2-.6,2.1-1.3,2.9-2,.9-.8,1.7-1.7,2.4-2.9v-31.2h11.9v46.8h-11.1v-6.8c-1,1.5-2.1,2.9-3.5,4-1.1,1-2.6,1.9-4.3,2.7-1.8.9-3.8,1.3-6.2,1.3ZM299.9,22.3h9.2v-13.9h11.9v13.9h14v10.7h-14.1v18.9c0,1.5.2,2.6.5,3.6.3.9.8,1.7,1.4,2.3s1.2,1,2,1.2c.7.2,1.5.3,2.3.3s1.3,0,1.9-.2c.6-.2,1.1-.3,1.6-.6l1.5-.9,4.3,9.7c-.9.6-1.9,1.1-3.1,1.6-1,.4-2.2.7-3.5,1-1.4.3-2.9.5-4.6.5s-4.4-.4-6.4-1.2c-1.9-.8-3.6-1.9-5-3.4-1.4-1.4-2.5-3.2-3.4-5.2-.8-2-1.2-4.3-1.2-6.8v-20.8h-9.2v-10.7h-.1ZM360.7,70.3c-2.2,0-4.4-.4-6.5-1.2-2.1-.8-3.9-1.9-5.5-3.5-1.6-1.5-2.8-3.4-3.8-5.5-1-2.2-1.4-4.7-1.4-7.5v-30.3h11.9v27.1c0,3.5.8,6,2.4,7.6s3.9,2.3,6.9,2.3,2.8-.3,4-.9c1.2-.6,2.1-1.3,2.9-2,.9-.8,1.7-1.7,2.4-2.9v-31.2h11.9v46.8h-11.1v-6.8c-1,1.5-2.1,2.9-3.5,4-1.1,1-2.6,1.9-4.3,2.7-1.9.9-3.9,1.3-6.3,1.3ZM420.5,21.1c1.1,0,2.1.1,3.1.2,1,.2,1.8.4,2.6.5.9.3,1.7.5,2.5.7l-4.2,10.7c-.4,0-.9-.3-1.5-.5-.5,0-1.1-.3-1.8-.4-.7,0-1.5-.2-2.3-.2-1.8,0-3.4.3-4.7,1-1.3.7-2.4,1.4-3.2,2.2-1,.9-1.8,2-2.6,3.2v30.6h-11.8V22.3h11.3v6.8c.9-1.4,1.9-2.8,3.1-4,1.1-1,2.4-1.9,4-2.8,1.5-.7,3.4-1.2,5.5-1.2ZM452.3,21.1c3.2,0,6.3.6,9.1,1.8,2.9,1.2,5.4,2.9,7.5,5s3.8,4.7,5.1,7.7c1.2,3,1.9,6.3,1.9,9.9v1.9c0,.8,0,1.6-.1,2.6h-34.9c.2,1.1.6,2.1,1.4,3.3.7,1.1,1.6,2.1,2.8,3.1,1.1.9,2.4,1.7,3.9,2.3s3.2.9,5,.9,3.8-.2,5.4-.7,2.9-1,4-1.6c1.3-.7,2.4-1.5,3.4-2.4l5.9,8.9c-1.5,1.2-3.2,2.4-5.1,3.4-1.6.9-3.6,1.6-5.9,2.3-2.3.7-4.9,1-7.7,1s-6.9-.6-9.9-1.9c-3.1-1.3-5.7-3-8-5.2s-4-4.8-5.3-7.8-1.9-6.2-1.9-9.6.6-6.6,1.8-9.6c1.2-3,2.8-5.6,4.9-7.8,2.1-2.2,4.6-4,7.5-5.2,2.8-1.6,5.9-2.3,9.2-2.3h0ZM464.1,41.4c-.1-1-.3-2-.8-3.2-.5-1.1-1.2-2.2-2.2-3.1-.9-.9-2.2-1.7-3.6-2.3-1.5-.6-3.2-.9-5.1-.9s-3.6.3-4.9.9c-1.4.6-2.6,1.4-3.5,2.3-.9.9-1.7,2-2.2,3.1s-.8,2.2-.8,3.3h23.1ZM201.4,93.4h11.8v61.6h29.4v11.2h-41.3v-72.8h.1ZM269.7,118.2c3.2,0,6.3.6,9.1,1.8,2.9,1.2,5.4,2.8,7.5,5,2.1,2.1,3.8,4.7,5.1,7.7,1.2,3,1.9,6.3,1.9,9.9v1.9c0,.8,0,1.6-.1,2.6h-34.9c.2,1.1.7,2.1,1.4,3.3.7,1.1,1.6,2.1,2.8,3.1,1.1.9,2.4,1.7,3.9,2.3s3.2.9,5,.9,3.8-.2,5.4-.7,2.9-1,4-1.6c1.2-.7,2.4-1.5,3.4-2.4l5.9,8.9c-1.5,1.2-3.2,2.4-5.1,3.4-1.6.9-3.6,1.6-5.9,2.3s-4.9,1-7.7,1-6.9-.6-9.9-1.9c-3.1-1.3-5.7-3-8-5.2s-4-4.8-5.3-7.8-1.9-6.2-1.9-9.6.6-6.6,1.8-9.6,2.8-5.6,4.9-7.8c2.1-2.2,4.6-4,7.5-5.2,2.7-1.7,5.8-2.3,9.2-2.3h0ZM281.4,138.4c-.1-1-.3-2-.8-3.2-.5-1.1-1.2-2.2-2.2-3.1-1-1-2.2-1.7-3.6-2.3-1.5-.6-3.2-.9-5.1-.9s-3.5.3-4.9.9c-1.4.6-2.6,1.3-3.5,2.3-.9.9-1.7,1.9-2.2,3.1-.5,1.1-.8,2.2-.8,3.3h23.1ZM347.5,119.3v46.8h-11v-6.1c-.9,1.4-1.9,2.6-3.3,3.7-1.1.9-2.6,1.8-4.4,2.5-1.8.8-4,1.1-6.5,1.1s-5.9-.6-8.7-1.8c-2.8-1.2-5.2-2.9-7.3-5.1-2.1-2.2-3.7-4.8-5-7.7-1.2-3-1.9-6.3-1.9-9.9s.6-6.9,1.9-9.9c1.2-3,2.9-5.6,5-7.7,2.1-2.2,4.5-3.9,7.3-5.1s5.7-1.8,8.7-1.8,4.6.4,6.4,1.1c1.8.8,3.3,1.6,4.4,2.5,1.3,1.1,2.4,2.3,3.4,3.7v-6.1h11v-.2ZM335.6,135.7c-.7-1.2-1.6-2.3-2.7-3.3-.9-.8-2.1-1.5-3.4-2.2-1.4-.7-3-1-4.9-1s-3.8.4-5.4,1c-1.6.7-3,1.6-4.1,2.9-1.1,1.2-2,2.6-2.6,4.3-.6,1.6-.9,3.4-.9,5.3s.3,3.7.9,5.3,1.4,3.1,2.6,4.3c1.1,1.2,2.5,2.2,4.1,2.9s3.4,1,5.4,1,3.6-.3,4.9-1c1.4-.7,2.5-1.4,3.4-2.3,1.1-.9,1.9-2,2.7-3.3v-13.9ZM381.8,118.2c1,0,2.1,0,3.1.2,1,.2,1.8.3,2.6.5.9.3,1.7.5,2.5.7l-4.1,10.7c-.4-.1-.9-.3-1.5-.5-.5-.1-1.1-.3-1.8-.4-.7-.1-1.5-.2-2.3-.2-1.8,0-3.4.3-4.7,1-1.3.7-2.4,1.4-3.2,2.2-1,.9-1.8,2-2.6,3.2v30.6h-11.8v-46.8h11.2v6.8c.8-1.4,1.9-2.8,3.1-3.9,1-1,2.4-1.9,4-2.8,1.5-.9,3.3-1.3,5.5-1.3h0ZM421,118.2c2.2,0,4.4.4,6.5,1.2,2.1.8,3.9,1.9,5.5,3.5,1.6,1.5,2.8,3.4,3.8,5.5.9,2.2,1.4,4.7,1.4,7.5v30.3h-11.9v-27.3c0-3.4-.9-5.8-2.7-7.3-1.8-1.5-4-2.3-6.6-2.3s-2.8.3-4,1-2.1,1.4-2.9,2.1c-.9.9-1.7,1.8-2.4,3v30.9h-11.7v-46.8h11v6.8c.9-1.4,1.9-2.8,3.3-3.9,1.1-1,2.6-1.9,4.3-2.8,1.8-1,3.9-1.4,6.4-1.4h0Z"/>
  <path class="st0" d="M161.1,0v55.2h-52.7v48.6h-53.2v48.4H0v14h69.1v-48.5h53.3v-48.6h52.7V0h-14Z"/>
</svg>