<?xml version="1.0" encoding="UTF-8"?>
<svg id="Layer_1" xmlns="http://www.w3.org/2000/svg" version="1.1" viewBox="0 0 910 148">
  <!-- Generator: Adobe Illustrator 29.3.0, SVG Export Plug-In . SVG Version: 2.1.0 Build 146)  -->
  <defs>
    <style>
      .st0 {
        fill: #231f20;
      }
    </style>
  </defs>
  <path class="st0" d="M125.8,33.3L69.2,1.1c-2.6-1.3-5.7-1.3-8.4,0L4.2,33.3c-3,1.5-4.2,3.9-4.2,7.2v67.1c0,3.3,1.2,5.4,4.2,7.2l56.6,32.3c2.6,1.3,5.7,1.3,8.4,0l56.6-32.3c3-1.8,4.2-3.9,4.2-7.2V40.5c0-3.9-1.8-6-4.2-7.2ZM53.7,36c6.2-6.2,16.4-6.2,22.6,0s6.2,16.4,0,22.6-16.4,6.2-22.6,0c-6.2-6.2-6.2-16.4,0-22.6ZM83,112.8c-5.8,2.1-11.9,3.2-18,3.2-6.1,0-12.2-1.1-18-3.2-18.7-7.1-32-25.7-32-47.5,0-1.8,0-3.6.3-5.3,26.9.1,48.7,22.7,48.7,50.5v1.2h2.1v-1.2c0-27.8,21.8-50.4,48.6-50.5.2,1.8.3,3.5.3,5.3,0,21.8-13.3,40.3-32,47.5Z"/>
  <g>
    <path class="st0" d="M166.1,34.3c0-1.6,1.2-2.9,2.8-2.9,0,0,0,0,.1,0h10.6c1.6,0,2.9,1.3,2.9,2.9v32.5l30.3-34.2c.5-.7,1.4-1.2,2.3-1.2h12c1.4,0,2.6,1.1,2.7,2.5,0,.7-.2,1.4-.7,1.9l-31.4,35.4,33.7,40.3c.9,1.2.6,2.8-.6,3.7-.5.3-1,.5-1.6.5h-13.1c-.8,0-1.6-.2-2.2-.8l-31.4-38.7v36.7c0,1.6-1.3,2.9-2.9,2.9h-10.5c-1.6,0-2.9-1.2-2.9-2.8,0,0,0,0,0,0V34.3Z"/>
    <path class="st0" d="M240,34.1c0-1.4,1.2-2.6,2.6-2.6h9.7c1.4,0,2.6,1.2,2.6,2.6v29.5c2.8-2.4,7.6-4.7,14.2-4.7,17.7,0,22.5,12.3,22.5,26.2v27.9c0,1.4-1.2,2.6-2.6,2.7h-9.7c-1.5,0-2.6-1.2-2.6-2.7v-28c0-7.7-3.5-12.4-10.1-12.4s-10.1,4.1-11.6,9.7v30.6c0,1.6-.7,2.7-2.9,2.7h-9.5c-1.4,0-2.6-1.2-2.6-2.7V34.1Z"/>
    <path class="st0" d="M322.3,80.5c3.6,0,7.2.6,10.7,1.6.2-7.1-1.8-10.5-7.7-10.5-5.3,0-10.5.7-15.6,2-1.8.6-2.9-.7-3.1-2.4l-1.2-6.2c-.5-1.3.2-2.8,1.5-3.3.1,0,.2,0,.3-.1,6.2-1.8,12.6-2.7,19-2.8,17.3,0,20.9,9,20.9,24.2v30c0,1.5-1.2,2.6-2.6,2.7h-4.1c-1,0-1.7-.4-2.4-1.9l-1.6-3.7c-4.6,4.6-10.9,7.1-17.4,7-11.1,0-18.8-7.1-18.8-19s8.1-17.5,22.1-17.5ZM322.6,105.8c4.9,0,9.3-3.8,10-5.9v-8.2c-2.6-1.1-5.4-1.7-8.2-1.7-6.4,0-9.9,3-9.9,7.9,0,4.7,2.9,7.8,8.1,7.8h0Z"/>
    <path class="st0" d="M359.6,62.7c0-1.5,1.2-2.6,2.6-2.7h4.6c1.1-.1,2.1.6,2.3,1.7l2,5.2c4.4-5.3,11-8.3,17.9-8.1,17.7,0,22.2,11.9,22.2,25.4v28.8c0,1.4-1.2,2.6-2.6,2.7h-9.7c-1.5,0-2.6-1.2-2.6-2.7v-28.8c0-7.2-2.9-11.7-9.6-11.7-5.5-.1-10.4,3.4-12,8.7v31.8c0,2.1-.8,2.7-3.5,2.7h-8.9c-1.4,0-2.6-1.2-2.6-2.7v-50.3Z"/>
    <path class="st0" d="M439.7,112.5l37.4-80.9c.3-.8,1.1-1.3,2-1.3h1.2c.9,0,1.7.5,2,1.3l37,80.9c.6,1,.2,2.3-.8,2.9-.4.2-.8.3-1.2.3h-10.4c-1.8,0-2.6-.7-3.5-2.4l-5.9-13h-36l-5.9,13c-.5,1.5-1.9,2.4-3.5,2.4h-10.5c-1.2,0-2.2-.8-2.3-1.9,0-.4,0-.8.2-1.2ZM491.6,86.9l-12-26.5h-.4l-11.8,26.5h24.2Z"/>
    <path class="st0" d="M550.4,58.9c8.7,0,15.4,3.7,20.7,9.4,1.2,1.2.6,2.8-.6,4l-5,5.5c-1.2,1.3-2.5.7-3.6-.4-2.6-2.5-5.9-4.8-11.1-4.8-8.7,0-14.7,6.7-14.7,15.3s5.9,15.4,14.5,15.4,9.4-3.4,11.8-6.1c.9-1,2.4-1.2,3.5-.4l5.4,4.6c1.3,1.2,1.9,2.5,1,4-4.7,7.3-12.1,11.7-22,11.7-16.2,0-29.3-12.4-29.3-29.1,0-16.4,12.9-29,29.4-29Z"/>
    <path class="st0" d="M601.8,80.5c3.6,0,7.2.6,10.7,1.6.2-7.1-1.8-10.5-7.7-10.5-5.3,0-10.5.7-15.6,2-1.8.6-2.9-.7-3.1-2.4l-1.2-6.2c-.5-1.3.2-2.8,1.5-3.3.1,0,.2,0,.3-.1,6.2-1.8,12.6-2.7,19-2.8,17.3,0,20.9,9,20.9,24.2v30c0,1.5-1.2,2.6-2.6,2.7h-4.1c-1,0-1.7-.4-2.4-1.9l-1.6-3.7c-4.6,4.6-10.9,7.1-17.4,7-11.1,0-18.8-7.1-18.8-19s8.1-17.5,22.1-17.5ZM602.2,105.8c4.9,0,9.3-3.8,10-5.9v-8.2c-2.6-1.1-5.4-1.7-8.2-1.7-6.4,0-9.9,3-9.9,7.9,0,4.7,2.9,7.8,8,7.8Z"/>
    <path class="st0" d="M663.6,58.9c4.5,0,9.1.8,13.3,2.3v-27c0-1.4,1.2-2.6,2.7-2.6h9.7c1.4,0,2.6,1.2,2.6,2.6v78.8c0,1.5-1.2,2.6-2.6,2.7h-4.5c-1.3,0-2.2-1.1-2.7-2.7l-1.4-4.3c-4.6,5.3-11.2,8.3-18.2,8.3-15.1,0-26.6-12.3-26.6-29.1s11-29,27.6-29ZM676.9,75.7c-3.5-2.1-7.5-3.2-11.5-3.1-9.1,0-13.8,7.4-13.8,15.3s4.5,15.4,13.1,15.4,11.1-4.6,12.3-7.7v-19.8Z"/>
    <path class="st0" d="M729.6,58.9c14.4,0,25.5,10.7,25.5,25.7s-.1,2.8-.2,3.6c-.1,1.4-1.3,2.4-2.6,2.5h-35.6c.1,6.8,5.8,12.9,13.8,12.9,4.3,0,8.5-1.4,11.9-4.1,1.3-1.1,2.8-1.2,3.6,0l4.7,6.2c.9.9,1,2.3.1,3.3-.1.1-.2.2-.4.3-5.7,5-13.1,7.7-20.7,7.6-16.6,0-28.1-13.2-28.1-29.1s11.5-29,28-29ZM739.9,80.9c-.2-5.4-4.6-9.6-10.7-9.6s-11.1,4.1-11.8,9.6h22.5Z"/>
    <path class="st0" d="M764,62.7c0-1.5,1.2-2.6,2.6-2.7h4.3c1-.1,2,.6,2.3,1.6l2,5.3c4.1-5.2,10.4-8.2,17-8.1,8.1,0,12,2.9,16.6,8.4,2.4-2.5,7.9-8.4,17.9-8.4,17.8,0,22,11.3,22,25.7v28.4c0,1.5-1.3,2.7-2.7,2.7,0,0,0,0,0,0h-9.6c-1.5,0-2.6-1.2-2.6-2.7v-28.8c0-7.2-2.7-11.7-9.6-11.7s-10.3,5.8-10.3,5.8c0,0,.2,2.8.2,5.3v29.4c0,1.4-1.2,2.6-2.6,2.7h-9.9c-1.4,0-2.6-1.1-2.7-2.5,0,0,0,0,0-.1v-28.8c0-7.2-2-11.7-9.1-11.7s-9.4,4.8-10.7,8.7v31.8c0,1.4-1.2,2.6-2.6,2.7h-9.8c-1.4,0-2.6-1.2-2.6-2.7v-50.3Z"/>
    <path class="st0" d="M854.5,63.7c-.7-1.9.2-3.6,2.4-3.6h11.5c1-.1,2,.6,2.3,1.6l10,33.2h.2l12.6-33.2c.8-1.5,1.8-1.6,3.5-1.6h10.2c1.3-.1,2.5.8,2.7,2.2,0,.5,0,1-.3,1.5l-32.7,78.9c-.4,1-1.4,1.6-2.4,1.7h-11.5c-1.4.1-2.6-.9-2.7-2.3,0-.5,0-1,.3-1.5l11.2-28.1-17.3-48.7Z"/>
  </g>
</svg>