<?xml version="1.0" encoding="UTF-8"?>
<svg id="svg3070" xmlns="http://www.w3.org/2000/svg" version="1.1" xmlns:cc="http://creativecommons.org/ns#" xmlns:dc="http://purl.org/dc/elements/1.1/" xmlns:inkscape="http://www.inkscape.org/namespaces/inkscape" xmlns:rdf="http://www.w3.org/1999/02/22-rdf-syntax-ns#" xmlns:sodipodi="http://sodipodi.sourceforge.net/DTD/sodipodi-0.dtd" xmlns:svg="http://www.w3.org/2000/svg" viewBox="0 0 291 79.5">
  <!-- Generator: Adobe Illustrator 29.3.0, SVG Export Plug-In . SVG Version: 2.1.0 Build 146)  -->
  <defs>
    <style>
      .st0 {
        fill-rule: evenodd;
      }

      .st0, .st1 {
        fill: #231f20;
      }
    </style>
  </defs>
  <sodipodi:namedview id="base" bordercolor="#666666" borderopacity="1.0" fit-margin-bottom="0" fit-margin-left="0" fit-margin-right="0" fit-margin-top="0" inkscape:current-layer="layer1" inkscape:cx="142.93233" inkscape:cy="33.703355" inkscape:document-units="px" inkscape:pageopacity="0.0" inkscape:pageshadow="2" inkscape:window-height="750" inkscape:window-maximized="1" inkscape:window-width="1280" inkscape:window-x="-8" inkscape:window-y="-8" inkscape:zoom="2.8" pagecolor="#ffffff" showgrid="false"/>
  <g>
    <path id="path16" class="st0" d="M1.8,65.7h31.6v-10.4H13.2V15.7H1.8s0,50,0,50Z" inkscape:connector-curvature="0"/>
    <path id="path18" class="st0" d="M49.4,65.7V31.2h-11.4v34.4h11.4ZM43.7,26.5c4,0,6.5-2.6,6.5-5.9,0-3.4-2.5-5.9-6.4-5.9s-6.5,2.6-6.5,5.9,2.5,5.9,6.3,5.9h0Z" inkscape:connector-curvature="0"/>
    <path id="path20" class="st0" d="M54.7,65.7h11.4v-19.2c0-1,0-2.1.4-2.8.8-2.1,2.7-4.2,5.9-4.2s5.8,3.2,5.8,7.8v18.4h11.4v-19.7c0-10.6-5.6-15.5-13.2-15.5s-8.9,3.5-10.4,5.8h0v-5h-11.4c.2,3.2,0,34.4,0,34.4h0Z" inkscape:connector-curvature="0"/>
    <path id="path22" class="st0" d="M105.8,15.7h-11.4v50h11.4v-11.2l2.9-3.6,9,14.8h14.1l-15.1-21.4,13.2-14.5h-13.8s-9.4,13-10.2,14.6V15.7h0Z" inkscape:connector-curvature="0"/>
    <path id="path24" class="st0" d="M162.3,51.3c.2-.9.4-2.6.4-4.5,0-8.9-4.5-17.9-16.4-17.9s-18.6,10.1-18.6,19.2,7.2,18.3,19.6,18.3,9.6-.7,13.3-2.3l-1.5-7.6c-3.1,1-6.2,1.5-10.2,1.5s-10-2.2-10.4-6.9h23.7c0,0,0,0,0,0ZM138.5,43.5c.3-2.9,2.3-7.3,7.2-7.3s6.4,4.6,6.4,7.3h-13.6Z" inkscape:connector-curvature="0"/>
    <path id="path26" class="st0" d="M190.9,15.7v17.3h-.2c-1.7-2.4-5.1-4-9.7-4-8.8,0-16.6,7.1-16.5,19.1,0,11.2,7,18.4,15.7,18.4s9.3-2.1,11.5-6h.2l.5,5.2h10.2c-.2-2.4-.3-6.6-.3-10.7V15.7h-11.4,0ZM190.9,49.7c0,.9,0,1.8-.2,2.5-.7,3.2-3.4,5.4-6.7,5.4-4.7,0-7.8-3.8-7.8-9.8s2.6-10.2,7.9-10.2,6,2.4,6.7,5.4c.2.7.2,1.4.2,2.1v4.7h0Z" inkscape:connector-curvature="0"/>
    <path class="st1" d="M284.1,1.8h-64.6c-3.1,0-5.6,2.4-5.6,5.5v65.3c0,3,2.5,5.5,5.6,5.5h64.6c3.1,0,5.6-2.4,5.6-5.5V7.2c0-3-2.5-5.5-5.6-5.5ZM236.9,65.6h-11.4V31.2h11.4v34.4ZM231.1,26.5h0c-3.8,0-6.3-2.6-6.3-5.9s2.6-5.9,6.5-5.9,6.3,2.6,6.4,5.9c0,3.3-2.5,5.9-6.5,5.9ZM278.1,65.6h-11.4v-18.4c0-4.6-1.7-7.8-5.8-7.8s-5,2.1-5.9,4.2c-.3.7-.4,1.8-.4,2.8v19.2h-11.4s.2-31.2,0-34.4h11.4v4.9c1.5-2.3,4.2-5.7,10.3-5.7s13.2,4.9,13.2,15.5v19.7Z"/>
    <path class="st1" d="M254.6,36.2h0c0,0,0,0,0,0h0Z"/>
  </g>
</svg>