<?xml version="1.0" encoding="UTF-8"?>
<svg id="Layer_1" xmlns="http://www.w3.org/2000/svg" version="1.1" xmlns:xlink="http://www.w3.org/1999/xlink" viewBox="0 0 198 43">
  <!-- Generator: Adobe Illustrator 29.3.0, SVG Export Plug-In . SVG Version: 2.1.0 Build 146)  -->
  <defs>
    <style>
      .st0, .st1 {
        fill: #fff;
      }

      .st2 {
        mask: url(#mask);
      }

      .st1 {
        fill-rule: evenodd;
      }

      .st3 {
        fill: #231f20;
      }
    </style>
    <mask id="mask" x="188" y="15" width="9.3" height="13" maskUnits="userSpaceOnUse">
      <g id="e">
        <path id="d" class="st1" d="M188,15h9.3v13h-9.3v-13Z"/>
      </g>
    </mask>
  </defs>
  <g>
    <path class="st3" d="M13.6,16.1v10.6l2.5-1.4v-7.8c-1-.6-2.5-1.4-2.5-1.4Z"/>
    <polygon class="st3" points="17.9 26.3 17.9 29.1 31.2 21.4 17.9 13.8 17.9 16.5 26.4 21.4 17.9 26.3"/>
    <path class="st3" d="M21.5.7C10,.7.7,10,.7,21.4s9.3,20.7,20.7,20.7,20.7-9.3,20.7-20.7S32.9.7,21.5.7ZM16.1,32.2v-4.8l-4.3,2.5V13l4.3,2.5v-4.8l18.6,10.8-18.6,10.8Z"/>
    <path class="st3" d="M22.9,21.4s-2.5-1.4-4.9-2.8v5.7l4.9-2.8Z"/>
  </g>
  <path class="st0" d="M17.9,18.6c-.9-.5-1.1-.6-1.8-1v7.8l1.8-1v-5.7Z"/>
  <path class="st3" d="M53.4,15.8h4.4c2.6,0,4.3,1.5,4.3,3.8h0c0,2.5-2,3.9-4.5,3.9h-2.2v3.6h-2v-11.2ZM57.7,21.7c1.5,0,2.4-.8,2.4-2h0c0-1.3-.9-2-2.4-2h-2.3v4h2.3ZM67,15.8h2v9.4h5.9v1.8h-7.9v-11.2ZM79.3,22.3v-6.5h2v6.4c0,2.1,1.1,3.2,2.8,3.2s2.8-1.1,2.8-3.1v-6.5h2v6.4c0,3.4-1.9,5-4.8,5s-4.8-1.7-4.8-4.9h0ZM94.5,15.8h5c1.4,0,2.5.4,3.2,1.1.6.6.9,1.4.9,2.4h0c0,1.9-1.1,3-2.7,3.4l3,4.2h-2.3l-2.8-3.9h-2.5v3.9h-2v-11.2s0,0,0,0ZM99.4,21.4c1.4,0,2.3-.7,2.3-1.9h0c0-1.2-.9-1.9-2.3-1.9h-2.9v3.8h2.9ZM113,15.7h1.8l4.9,11.3h-2.1l-1.1-2.7h-5.3l-1.2,2.7h-2l4.9-11.3s0,0,0,0ZM115.8,22.6l-1.9-4.5-1.9,4.5h3.9ZM124.5,15.8h2v9.4h5.9v1.8h-7.9v-11.2ZM136.6,25.4l1.2-1.4c1.1.9,2.1,1.5,3.5,1.5s2-.6,2-1.4h0c0-.8-.4-1.3-2.5-1.7-2.4-.6-3.7-1.3-3.7-3.4h0c0-2,1.6-3.3,3.8-3.3s2.9.5,4.1,1.4l-1.1,1.5c-1-.8-2-1.2-3-1.2s-1.8.6-1.8,1.3h0c0,.9.5,1.3,2.7,1.8,2.4.6,3.6,1.4,3.6,3.3h0c0,2.1-1.7,3.4-4,3.4s-3.3-.6-4.7-1.8ZM150.6,15.8h2v11.2h-2v-11.2ZM157.9,21.5h0c0-3.2,2.4-5.8,5.8-5.8s3.2.5,4.3,1.5l-1.3,1.5c-.9-.7-1.7-1.2-3.1-1.2-2.1,0-3.6,1.8-3.6,4h0c0,2.3,1.5,4,3.8,4s2-.3,2.7-.9v-2.1h-2.9v-1.7h4.8v4.7c-1.1.9-2.7,1.7-4.7,1.7-3.5,0-5.8-2.5-5.8-5.8h0ZM173.9,15.8h2v4.7h5.4v-4.7h2v11.2h-2v-4.7h-5.4v4.7h-2v-11.2Z"/>
  <g class="st2">
    <path d="M188.1,15.8v1.8h3.6v9.4h2v-9.4h3.6v-1.8h-9.1Z"/>
  </g>
</svg>