<?xml version="1.0" encoding="UTF-8"?>
<svg id="Layer_1" xmlns="http://www.w3.org/2000/svg" version="1.1" xmlns:xlink="http://www.w3.org/1999/xlink" viewBox="0 0 81.8 40.5">
  <!-- Generator: Adobe Illustrator 29.3.0, SVG Export Plug-In . SVG Version: 2.1.0 Build 146)  -->
  <defs>
    <style>
      .st0 {
        fill: none;
      }

      .st1 {
        fill: #231f20;
      }

      .st2 {
        clip-path: url(#clippath);
      }
    </style>
    <clipPath id="clippath">
      <rect class="st0" x="0" y="0" width="81.8" height="40.5"/>
    </clipPath>
  </defs>
  <g class="st2">
    <g>
      <path d="M23.8,21.7l-4.3-6.2v6.2h-4.5V7.4h4.5v6l4.5-6h5.3l-5.5,6.7,5.6,7.5h-5.5Z"/>
      <path class="st1" d="M79.2,40.4c1.5,0,2.6-1.2,2.6-2.6s-1.2-2.6-2.6-2.6-2.6,1.2-2.6,2.6,1.2,2.6,2.6,2.6ZM33.4,5.2c1.5,0,2.6-1.2,2.6-2.6S34.8,0,33.4,0s-2.6,1.2-2.6,2.6,1.2,2.6,2.6,2.6Z"/>
      <path d="M35.6,7.4h-4.5v14.3h4.5V7.4ZM31,33c0-4.3,2.6-7.5,6.8-7.5s3.7,1,4.5,2.4v-2h4.5v14.2h-4.5v-2c-.8,1.4-2.5,2.4-4.5,2.4-4.3,0-6.7-3.2-6.7-7.5ZM42.4,33c0-2-1.2-3.7-3.4-3.7s-3.4,1.6-3.4,3.7,1.3,3.8,3.4,3.8,3.4-1.7,3.4-3.8ZM49.4,25.9h4.5v3c.5-2.1,2.2-3.2,3.9-3.2s.8,0,1.2.1v4.2c-.6,0-.8,0-1.4,0-2.5,0-3.8,1.6-3.8,4.8v5.5h-4.5v-14.2ZM59.9,33c0-4.7,3-7.5,7.7-7.5s7.4,2.7,7.4,6.8,0,1.2-.1,2h-10.5c0,1.9,1.3,2.9,3.3,2.9s2.3-.4,2.7-1.3h4.4c-.4,2.8-3.3,4.7-7.1,4.7s-7.8-2.7-7.8-7.5ZM70.6,31.5c0-1.9-1.1-2.9-3-2.9s-3.1,1.2-3.2,2.9h6.2ZM42.7,17.4V7.4h-4.5v14.3h11v-4.2h-6.5ZM56.2,17.4V7.4h-4.5v14.3h11v-4.2h-6.5ZM24.8,25.9v5.1h-5.4v-5.1h-4.4v14.3h4.4v-5.1h5.4v5.1h4.4v-14.3h-4.4ZM9.4,31.7l-2.8-.8c-.9-.3-1.3-.7-1.3-1.3s.5-1,1.1-1.1c.9-.1,1.7.3,1.7,1.3h0c0,0,4.8,0,4.8,0h0c0,0,0,0,0,0,0-2.8-2.4-4.4-6.4-4.4S.4,27.2.4,29.9s1.3,3.6,3.6,4.2l2.8.7c.8.3,1.2.7,1.2,1.3,0,.7-.7,1.1-1.4,1.1-1.1,0-1.8-.5-1.9-1.4H0c0,2.7,2.7,4.6,6.7,4.6s6.2-1.7,6.2-4.7c0-2.2-1.4-3.5-3.6-4.1ZM9.4,13.2l-2.8-.8c-.9-.3-1.3-.7-1.3-1.3s.5-1,1.1-1.1c.9-.1,1.7.3,1.7,1.3h0c0,0,4.8,0,4.8,0h0c0,0,0,0,0,0,0-2.8-2.4-4.4-6.4-4.4S.4,8.7.4,11.4s1.3,3.6,3.6,4.2l2.8.7c.8.3,1.2.7,1.2,1.3,0,.7-.7,1.1-1.4,1.1-1.1,0-1.8-.5-1.9-1.4H0c0,2.7,2.7,4.6,6.7,4.6s6.2-1.7,6.2-4.7c0-2.2-1.4-3.5-3.6-4.1Z"/>
    </g>
  </g>
</svg>