<?xml version="1.0" encoding="UTF-8"?>
<svg id="Layer_1" xmlns="http://www.w3.org/2000/svg" version="1.1" viewBox="0 0 91 34">
  <!-- Generator: Adobe Illustrator 29.3.0, SVG Export Plug-In . SVG Version: 2.1.0 Build 146)  -->
  <defs>
    <style>
      .st0 {
        fill: #231f20;
      }
    </style>
  </defs>
  <path class="st0" d="M14.1,8.1l-7-4.1L0,8.1v-4.1L7,0l7,4.1v4.1h0Z"/>
  <path d="M0,11.5h3.7v8.9c0,2.3,1.7,3.4,3.3,3.4s3.3-1.2,3.3-3.5v-8.9h3.7v9.2c0,2.1-.7,3.8-2,4.9-1.3,1.1-3,1.7-5.1,1.7s-3.7-.5-5-1.7c-1.3-1.1-2-2.7-2-4.8v-9.2ZM45.9,22.6c-1.1,1-2.4,1.5-3.8,1.5-2.6,0-4.4-1.5-4.6-3.8h11.9s0-.8,0-1.5c0-2.2-.7-4-2.1-5.5-1.4-1.5-3.2-2.2-5.4-2.2s-4.3.7-5.8,2.2c-1.5,1.5-2.2,3.4-2.2,5.9h0c0,2.5.8,4.4,2.2,5.9,1.5,1.4,3.5,2.2,5.9,2.2s5-1.1,6.7-3c0,0-2.7-1.6-2.7-1.6ZM38.9,15.2c.8-.6,1.8-1,3-1s1.9.3,2.7,1c.7.6,1.1,1.4,1.2,2.2h-8.2c.1-.9.6-1.6,1.4-2.2h0ZM82.9,29.3c-1.5,3.5-3.1,4.7-5.5,4.7h-1.7v-3.3h1.3c.8,0,1.6-.3,2.3-2l.7-1.7-6.3-15.5h3.7l4.5,11.2,4.6-11.2h3.7l-7.5,17.8h0ZM28.4,5.6v7.3c-1.2-1.1-3.1-1.7-4.9-1.7s-4,.8-5.5,2.3c-1.5,1.5-2.2,3.4-2.2,5.7s.7,4.2,2.2,5.7c1.5,1.5,3.3,2.3,5.5,2.3s4.1-1,4.9-1.7v1.4h3.7V5.7h-3.6ZM27.3,22.5c-.9.9-2,1.3-3.3,1.3s-2.4-.5-3.3-1.3c-.9-.9-1.3-2-1.3-3.3s.4-2.5,1.3-3.3c.9-.9,1.9-1.3,3.3-1.3s2.4.5,3.3,1.3c.9.9,1.4,2,1.4,3.3s-.5,2.5-1.4,3.3ZM68.2,11.2c-2.8,0-4.2,1.1-5.2,2.3-.4-.8-1.5-2.3-4.1-2.3s-3.5,1.1-4.1,1.9v-1.6h-3.6v15.3h3.6v-8.8c0-2.1,1.3-3.6,3-3.6s2.7,1.3,2.7,3.4v9h3.6v-8.8c0-2.1,1.2-3.6,3-3.6s2.7,1.3,2.7,3.4v9h3.7v-9.5c0-4-2.1-6.1-5.3-6.1h0Z"/>
</svg>