<?xml version="1.0" encoding="UTF-8"?>
<svg id="Layer_1" data-name="Layer 1" xmlns="http://www.w3.org/2000/svg" xmlns:xlink="http://www.w3.org/1999/xlink" viewBox="0 0 200 200">
  <defs>
    <style>
      .cls-1 {
        fill: url(#linear-gradient-2);
      }

      .cls-2 {
        fill: url(#linear-gradient-4);
      }

      .cls-3 {
        fill: url(#linear-gradient-3);
      }

      .cls-4 {
        fill: url(#linear-gradient);
      }
    </style>
    <linearGradient id="linear-gradient" x1="91.16" y1="196.77" x2="131.69" y2="29.29" gradientUnits="userSpaceOnUse">
      <stop offset="0" stop-color="#3f3eed"/>
      <stop offset="1" stop-color="#7e5da7"/>
    </linearGradient>
    <linearGradient id="linear-gradient-2" x1="72.62" y1="192.28" x2="113.16" y2="24.8" xlink:href="#linear-gradient"/>
    <linearGradient id="linear-gradient-3" x1="59.01" y1="188.99" x2="99.54" y2="21.51" xlink:href="#linear-gradient"/>
    <linearGradient id="linear-gradient-4" x1="39.41" y1="184.24" x2="79.95" y2="16.77" xlink:href="#linear-gradient"/>
  </defs>
  <path class="cls-4" d="M114.61,165.75h-34.61c-2.53,0-4.58,2.05-4.58,4.58h0c0,12.08,9.8,21.88,21.88,21.88h0c12.08,0,21.88-9.8,21.88-21.88h0c0-2.53-2.05-4.58-4.58-4.58Z"/>
  <path class="cls-1" d="M156.9,71.39c-3.84,0-7.37,1.39-10.1,3.69-5.35,4.5-12.21,6.8-19.21,6.8h-33.34c-6.91,0-13.5,2.56-18.85,6.93-2.99,2.45-6.9,3.82-11.13,3.51-7.72-.57-13.96-6.83-14.5-14.55-.64-9.18,6.64-16.86,15.69-16.86,3.84,0,7.37,1.39,10.1,3.69,5.35,4.5,12.21,6.8,19.21,6.8h34.07c2.82,0,5.25-2.17,5.38-4.99.14-3.01-2.26-5.5-5.24-5.5h-21.27c-2.82,0-5.25-2.17-5.38-4.99-.14-3.01,2.26-5.5,5.24-5.5h9.93c6.91,0,13.5,2.56,18.85,6.93,2.99,2.45,6.9,3.82,11.13,3.51,7.72-.57,13.96-6.83,14.5-14.55.65-9.18-6.64-16.86-15.69-16.86-3.84,0-7.37,1.39-10.1,3.69-5.35,4.5-12.21,6.8-19.21,6.8h-27.68c-2.82,0-5.25-2.17-5.38-4.99-.14-3.01,2.26-5.5,5.24-5.5h38.57c7.06,0,9.63-9.36,3.52-12.9-.05-.03-.1-.06-.14-.08-10.48-5.78-22.13-8.68-33.77-8.68-17.9,0-35.8,6.83-49.45,20.48-27.31,27.31-27.31,71.59,0,98.9,6.57,6.57,12.54,13.3,17.23,19.49,4.12,5.43,10.57,8.6,17.39,8.6h46.36c2.82,0,5.25-2.17,5.38-4.99.14-3.01-2.26-5.5-5.24-5.5h-21.27c-2.82,0-5.25-2.17-5.38-4.99-.14-3.01,2.26-5.5,5.24-5.5h9.81c6.93,0,13.55,2.61,18.86,7.07,3.06,2.56,7.1,3.99,11.47,3.61,7.63-.66,13.73-6.85,14.3-14.48.68-9.2-6.62-16.91-15.68-16.91-3.79,0-7.27,1.35-9.99,3.59-5.33,4.4-12.13,6.64-19.04,6.64h-12.45c-6.91,0-13.5,2.56-18.85,6.93-2.99,2.45-6.9,3.82-11.13,3.51-7.72-.57-13.96-6.83-14.5-14.55-.64-9.18,6.64-16.86,15.69-16.86,3.84,0,7.37,1.39,10.1,3.69,5.35,4.5,12.21,6.8,19.21,6.8h23.48c2.82,0,5.25-2.17,5.38-4.99.14-3.01-2.26-5.5-5.24-5.5h-21.42c-2.9,0-5.24-2.35-5.24-5.24h0c0-2.9,2.35-5.24,5.24-5.24h20.54c6.91,0,13.5,2.56,18.85,6.93,2.99,2.45,6.9,3.82,11.13,3.51,7.72-.57,13.96-6.83,14.5-14.55.64-9.18-6.64-16.86-15.69-16.86ZM146.61,39.95c2.61.16,4.74,2.3,4.91,4.9.2,3.17-2.38,5.75-5.55,5.56-2.61-.16-4.74-2.3-4.91-4.9-.2-3.18,2.38-5.75,5.55-5.56ZM146.64,124.08c2.61.16,4.74,2.3,4.91,4.9.2,3.18-2.38,5.75-5.55,5.56-2.61-.16-4.74-2.3-4.91-4.9-.2-3.17,2.38-5.75,5.55-5.56ZM156.57,92.34c-2.61-.16-4.74-2.3-4.91-4.9-.2-3.17,2.38-5.75,5.55-5.56,2.61.16,4.74,2.3,4.91,4.9.2,3.18-2.38,5.75-5.55,5.56Z"/>
  <path class="cls-3" d="M75.16,113.4c-2.17.36-3.92,2.11-4.28,4.28-.59,3.58,2.48,6.65,6.06,6.06,2.17-.36,3.92-2.11,4.28-4.28.59-3.58-2.48-6.65-6.06-6.06Z"/>
  <path class="cls-2" d="M64.57,71.46c-2.17.36-3.92,2.11-4.28,4.28-.59,3.58,2.48,6.65,6.06,6.06,2.17-.36,3.92-2.11,4.28-4.28.59-3.58-2.48-6.65-6.06-6.06Z"/>
</svg>